<?xml version="1.0" standalone="no"?>
<!DOCTYPE svg PUBLIC "-//W3C//DTD SVG 1.1//EN" "http://www.w3.org/Graphics/SVG/1.1/DTD/svg11.dtd" >
<svg xmlns="http://www.w3.org/2000/svg" xmlns:xlink="http://www.w3.org/1999/xlink" version="1.1">
<metadata>
Created by FontForge 20161003 at Sat Mar 17 23:20:47 2018
 By www-data
(c) Copyright 2005, Arphic Technology Co., Ltd.Copyright \(c\) 1997 enStep Incorporated. All Rights Reserved.
</metadata>
<defs>
<font id="ARCHRISTY" horiz-adv-x="516" >
  <font-face 
    font-family="AR CHRISTY"
    font-weight="5"
    font-stretch="normal"
    units-per-em="1000"
    panose-1="2 0 0 0 0 0 0 0 0 0"
    ascent="800"
    descent="-200"
    x-height="603"
    cap-height="817"
    bbox="-236 -238 920 990"
    underline-thickness="20"
    underline-position="-140"
    unicode-range="U+0020-2122"
  />
<missing-glyph horiz-adv-x="500" 
 />
    <glyph glyph-name=".notdef" horiz-adv-x="500" 
 />
    <glyph glyph-name="A" unicode="A" horiz-adv-x="541" 
d="M124 24l-112 -1q25 192 65 349q46 180 118 333l189 18q23 -196 45 -354q27 -199 54 -351h-140l-25 262l-150 -13zM212 479l85 6l-12 156l-30 -21z" />
    <glyph glyph-name="AE" unicode="&#xc6;" horiz-adv-x="749" 
d="M128 53l-112 -1q25 192 65 349q46 180 118 333l164 15l354 50l10 -95q-48 -25 -113 -43q-17 -3 -201 -39l27 -162l156 15l15 -147l-167 -10q16 -116 33 -215l213 29l16 -97l-356 -35l-6 75l-22 234l-150 -13zM216 508l85 6l-12 156l-30 -21z" />
    <glyph glyph-name="Aacute" unicode="&#xc1;" horiz-adv-x="504" 
d="M168 267l150 13l25 -262h140q-27 152 -54 351q-22 158 -45 354l-189 -18q-72 -153 -118 -333q-40 -157 -65 -349l112 1zM255 620l30 21l12 -156l-85 -6zM227 763q59 47 91 114l62 -58q-65 -17 -104 -80z" />
    <glyph glyph-name="Acircumflex" unicode="&#xc2;" horiz-adv-x="498" 
d="M168 267l150 13l25 -262h140q-27 152 -54 351q-22 158 -45 354l-189 -18q-72 -153 -118 -333q-40 -157 -65 -349l112 1zM255 620l30 21l12 -156l-85 -6zM334 773q0 34 -7 52t-22 37q-38 -28 -51.5 -49.5t-13.5 -49.5l-89 -1q26 31 61 65q31 33 67 67l67 -1q13 -29 29 -55
t46 -65h-87z" />
    <glyph glyph-name="Adieresis" unicode="&#xc4;" horiz-adv-x="502" 
d="M168 267l150 13l25 -262h140q-27 152 -54 351q-22 158 -45 354l-189 -18q-72 -153 -118 -333q-40 -157 -65 -349l112 1zM255 620l30 21l12 -156l-85 -6zM258 791q0 -7 -5 -13.5t-12.5 -11t-16 -7.5t-15.5 -3q-16 0 -21 11t-5 28q0 16 12 31t29 15q14 0 24 -17.5t10 -32.5
zM398 791q0 -7 -5 -13.5t-12.5 -11t-16 -7.5t-15.5 -3q-16 0 -21 11t-5 28q0 16 12 31t29 15q14 0 24 -17.5t10 -32.5z" />
    <glyph glyph-name="Agrave" unicode="&#xc0;" horiz-adv-x="510" 
d="M124 24l-112 -1q25 192 65 349q46 180 118 333l189 18q23 -196 45 -354q27 -199 54 -351h-140l-25 262l-150 -13zM212 479l85 6l-12 156l-30 -21zM314 739q-39 63 -104 80l62 58q32 -67 91 -114z" />
    <glyph glyph-name="Aring" unicode="&#xc5;" horiz-adv-x="502" 
d="M168 267l150 13l25 -262h140q-27 152 -54 351q-22 158 -45 354l-189 -18q-72 -153 -118 -333q-40 -157 -65 -349l112 1zM255 620l30 21l12 -156l-85 -6zM287 872q-19 0 -33 -13t-14 -32q0 -17 15 -32q17 -15 34 -15q20 0 33 18q5 7 8 17.5t3 21.5q0 17 -13 27q-6 4 -14 6
t-19 2zM206 847q0 15 7 27t22 20h-1q21 12 56 12q30 0 54 -22t24 -53q0 -34 -31 -61q-28 -23 -64 -23q-33 0 -52 37q-8 14 -11.5 30t-3.5 33z" />
    <glyph glyph-name="Atilde" unicode="&#xc3;" horiz-adv-x="493" 
d="M161 267l150 13l25 -262h140q-27 152 -54 351q-22 158 -45 354l-189 -18q-72 -153 -118 -333q-40 -157 -65 -349l112 1zM248 620l30 21l12 -156l-85 -6zM86 823v8q0 31 23.5 43.5t58.5 12.5q61 0 106.5 -37.5t71.5 -37.5q18 0 24.5 7.5t6.5 23.5q0 10 -1 19.5t-2 19.5
l67 3q0 -54 -24 -84.5t-77 -30.5q-37 0 -86 41t-76 41q-11 0 -14 -8.5t-3 -23.5z" />
    <glyph glyph-name="B" unicode="B" horiz-adv-x="410" 
d="M235 363l23 4q48 0 75 -77q20 -58 20 -119q0 -72 -68 -117q-60 -39 -136 -39q-73 0 -142 19q0 83 4.5 196.5t9.5 227.5t5 198q0 63 -15 123q63 15 129 15q102 0 161 -50q63 -54 63 -154q0 -84 -26 -136q-31 -61 -103 -91zM130 87h14q58 0 74.5 20.5t22.5 80.5l3 36
q0 38 -33 59q-24 15 -68 21zM125 434q79 32 101 78q16 34 16 133q0 46 -35 68q-29 18 -79 18h-8z" />
    <glyph glyph-name="C" unicode="C" horiz-adv-x="579" 
d="M5 360q0 172 55 277q72 137 228 137q99 0 159 -68.5t60 -167.5l-112 -10l1 27q0 102 -33 142q-28 34 -83 34q-97 0 -131 -132q-19 -74 -19 -213q0 -155 30.5 -238.5t86.5 -83.5q72 0 113 61q36 54 36 127q0 14 -1 21q33 0 67 5t47 7q0 -129 -64 -203q-68 -78 -195 -78
q-114 0 -185 126q-60 106 -60 230z" />
    <glyph glyph-name="Ccedilla" unicode="&#xc7;" horiz-adv-x="542" 
d="M292 -51q39 0 62.5 -24t23.5 -63q0 -43 -26.5 -71.5t-68.5 -28.5q-80 0 -99 90l63 5q2 -14 13.5 -23.5t23.5 -9.5q32 0 32 37q0 14 -10 24.5t-27 10.5q-20 0 -34 -23l-49 23l43 96q-100 10 -164 125q-60 106 -60 230q0 172 55 277q72 137 228 137q99 0 159 -68.5
t60 -167.5l-112 -10l1 27q0 102 -33 142q-28 34 -83 34q-97 0 -131 -132q-19 -74 -19 -213q0 -155 30.5 -238.5t86.5 -83.5q72 0 113 61q36 54 36 127q0 14 -1 21q33 0 67 5t47 7q0 -129 -64 -203q-58 -66 -157 -76l-18 -44h12z" />
    <glyph glyph-name="D" unicode="D" horiz-adv-x="484" 
d="M13 786q172 0 290 -90q129 -98 129 -265q0 -132 -23 -219q-28 -107 -96 -164q-76 -64 -207 -64q-28 0 -51.5 2t-46.5 8zM129 91q103 27 148 101q40 65 40 178q0 92 -29 166q-39 100 -114 100q-40 0 -79 -11z" />
    <glyph glyph-name="E" unicode="E" 
d="M13 797l457 26l3 -102q-54 -23 -125 -36q-18 -3 -218 -25l15 -175l169 2l2 -159l-193 5l10 -233l251 12l9 -106l-384 -5z" />
    <glyph glyph-name="Eacute" unicode="&#xc9;" horiz-adv-x="512" 
d="M187 857q28 20 53 48t41 59l64 -54q-40 -10 -62.5 -25.5t-44.5 -49.5zM29 797l457 26l3 -102q-54 -23 -125 -36q-18 -3 -218 -25l15 -175l169 2l2 -159l-193 5l10 -233l251 12l9 -106l-384 -5z" />
    <glyph glyph-name="Ecircumflex" unicode="&#xca;" horiz-adv-x="510" 
d="M33 797l457 26l3 -102q-54 -23 -125 -36q-18 -3 -218 -25l15 -175l169 2l2 -159l-193 5l10 -233l251 12l9 -106l-384 -5zM313 844q0 34 -7 52t-22 37q-38 -28 -51.5 -49.5t-13.5 -49.5l-89 -1q26 31 61 65q31 33 67 67l67 -1q13 -29 29 -55t46 -65h-87z" />
    <glyph glyph-name="Edieresis" unicode="&#xcb;" horiz-adv-x="522" 
d="M40 797l457 26l3 -102q-54 -23 -125 -36q-18 -3 -218 -25l15 -175l169 2l2 -159l-193 5l10 -233l251 12l9 -106l-384 -5zM245 880q0 -7 -5 -13.5t-12.5 -11t-16 -7.5t-15.5 -3q-16 0 -21 11t-5 28q0 16 12 31t29 15q14 0 24 -17.5t10 -32.5zM385 880q0 -7 -5 -13.5
t-12.5 -11t-16 -7.5t-15.5 -3q-16 0 -21 11t-5 28q0 16 12 31t29 15q14 0 24 -17.5t10 -32.5z" />
    <glyph glyph-name="Egrave" unicode="&#xc8;" 
d="M40 797l457 26l3 -102q-54 -23 -125 -36q-18 -3 -218 -25l15 -175l169 2l2 -159l-193 5l10 -233l251 12l9 -106l-384 -5zM283 833q-39 63 -104 80l62 58q32 -67 91 -114z" />
    <glyph glyph-name="Eth" unicode="&#xd0;" horiz-adv-x="597" 
d="M153 784q168 0 284 -88q126 -96 126 -259q0 -130 -22 -215q-28 -105 -94 -160q-75 -63 -203 -63q-27 0 -50 2t-46 8l2 328q-51 -7 -101 -18l-37 121q48 -7 84 -12q27 -3 55 -4zM266 104q101 26 145 99q39 63 39 174q0 90 -28 162q-38 98 -111 98q-40 0 -78 -11l13 -196
q18 3 36 7q44 8 110 28l-26 -114q-58 0 -114 -4z" />
    <glyph glyph-name="Euro" unicode="&#x20ac;" horiz-adv-x="647" 
d="M409 531l-1 -89l-159 6q-1 -29 -1 -62q0 -36 1 -68h6q63 0 123 6v-97l-119 -2q7 -44 19 -78q31 -83 87 -83q72 0 113 61q36 54 36 127q0 14 -1 21q33 0 67 5t47 7q0 -129 -64 -203q-68 -78 -195 -78q-114 0 -185 126q-26 45 -41 94l-77 -1l-8 120q34 -7 67 -13
q-1 15 -1 30q0 49 4 92l-87 4l-18 84l119 -3q14 56 37 100q72 137 228 137q99 0 159 -68.5t60 -167.5l-112 -10l1 27q0 102 -33 142q-28 34 -83 34q-97 0 -131 -132q-7 -28 -12 -65z" />
    <glyph glyph-name="F" unicode="F" horiz-adv-x="525" 
d="M9 -5q12 133 18 245t6 239q0 82 -4.5 150t-15.5 162l476 13l-29 -109q-78 0 -166 -12q-65 -9 -164 -29l15 -175l169 2l2 -159l-193 4q0 -95 7 -169.5t28 -145.5z" />
    <glyph glyph-name="G" unicode="G" horiz-adv-x="655" 
d="M335 754q-125 0 -164 -156q-19 -77 -19 -260q0 -126 16 -189q31 -124 121 -124q94 0 127 97q11 31 25 169l-236 -30l19 205l356 2q0 -46 -18 -196q-10 -83 -10 -137q0 -51 -2 -167t-2 -123l-113 -16q4 32 4 72q0 39 -4 64.5t-20 48.5q0 -42 -48 -64q-39 -18 -86 -18
q-142 0 -217 134q-62 110 -62 262q0 188 65 316q83 163 250 163q111 0 179 -77q65 -73 65 -185l-125 -10q0 99 -10 137q-21 82 -91 82z" />
    <glyph glyph-name="H" unicode="H" horiz-adv-x="520" 
d="M26 382q0 62 -6 153q-13 197 -13 256l114 -6l-11 -263l194 -6l-16 288l178 1q-13 -37 -18.5 -119t-5.5 -195q0 -98 2 -180.5t5 -176t3 -114.5l-210 -1l23 296l-110 -4l4 -305l-152 -6q0 46 13 238q6 88 6 144z" />
    <glyph glyph-name="I" unicode="I" horiz-adv-x="248" 
d="M133 429q0 -99 10 -210q7 -80 25 -210l-143 -3q0 52 4 127q9 170 9 212q0 80 -3.5 144.5t-12.5 163.5q-5 50 -16 153l146 11q-10 -114 -14.5 -199.5t-4.5 -188.5z" />
    <glyph glyph-name="Iacute" unicode="&#xcd;" horiz-adv-x="196" 
d="M149 429q0 -99 10 -210q7 -80 25 -210l-143 -3q0 52 4 127q9 170 9 212q0 80 -3.5 144.5t-12.5 163.5q-5 50 -16 153l146 11q-10 -114 -14.5 -199.5t-4.5 -188.5zM31 860q59 47 91 114l62 -58q-65 -17 -104 -80z" />
    <glyph glyph-name="Icircumflex" unicode="&#xce;" horiz-adv-x="287" 
d="M201 429q0 -99 10 -210q7 -80 25 -210l-143 -3q0 52 4 127q9 170 9 212q0 80 -3.5 144.5t-12.5 163.5q-5 50 -16 153l146 11q-10 -114 -14.5 -199.5t-4.5 -188.5zM193 849q0 34 -7 52t-22 37q-38 -28 -51.5 -49.5t-13.5 -49.5l-89 -1q26 31 61 65q31 33 67 67l67 -1
q13 -29 29 -55t46 -65h-87z" />
    <glyph glyph-name="Idieresis" unicode="&#xcf;" horiz-adv-x="237" 
d="M169 429q0 -99 10 -210q7 -80 25 -210l-143 -3q0 52 4 127q9 170 9 212q0 80 -3.5 144.5t-12.5 163.5q-5 50 -16 153l146 11q-10 -114 -14.5 -199.5t-4.5 -188.5zM86 894q0 -7 -5 -13.5t-12.5 -11t-16 -7.5t-15.5 -3q-16 0 -21 11t-5 28q0 16 12 31t29 15q14 0 24 -17.5
t10 -32.5zM226 894q0 -7 -5 -13.5t-12.5 -11t-16 -7.5t-15.5 -3q-16 0 -21 11t-5 28q0 16 12 31t29 15q14 0 24 -17.5t10 -32.5z" />
    <glyph glyph-name="Igrave" unicode="&#xcc;" horiz-adv-x="196" 
d="M149 429q0 -99 10 -210q7 -80 25 -210l-143 -3q0 52 4 127q9 170 9 212q0 80 -3.5 144.5t-12.5 163.5q-5 50 -16 153l146 11q-10 -114 -14.5 -199.5t-4.5 -188.5zM134 839q-39 63 -104 80l62 58q32 -67 91 -114z" />
    <glyph glyph-name="J" unicode="J" horiz-adv-x="452" 
d="M125 257q0 -49 8 -98q12 -74 36 -74q23 0 46 55q20 47 20 76q0 135 -12 290q-15 198 -44 275l225 24q0 -27 1 -80.5t1 -79.5q0 -12 0.5 -29t0.5 -39v-12v-12v-15q0 -140 -14 -232q-21 -134 -74 -206q-66 -88 -184 -88q-63 0 -97 81q-18 66 -36 133z" />
    <glyph glyph-name="K" unicode="K" horiz-adv-x="611" 
d="M182 -6h-169l-7 783h144l-2 -322q103 24 155 144q40 93 40 216l242 -25l-80 -132q-46 -73 -87 -122q-51 -61 -113 -107q59 -86 93 -141q49 -79 77 -145q35 -81 48 -161l-241 24q0 132 -14 193q-28 120 -113 120z" />
    <glyph glyph-name="L" unicode="L" horiz-adv-x="566" 
d="M467 75l41 -188l-495 24q0 79 3 159q9 240 9 267q0 60 -13 297q-6 109 -6 178h213q-33 -160 -51 -267q-23 -135 -37.5 -275t-14.5 -265z" />
    <glyph glyph-name="M" unicode="M" horiz-adv-x="764" 
d="M24 791l243 -17l84 -322q51 35 96 154q42 111 42 184l180 1q0 -56 -10 -237q-5 -91 -5 -143q0 -61 14 -247q7 -93 7 -150l-150 -1q14 62 21.5 134t7.5 142q0 143 -17 293l-138 -407l-128 -3l-142 486v-42q0 -69 6 -148t12.5 -164.5t6.5 -139.5q0 -83 -9 -164h-140
q0 106 4.5 250.5t9.5 289t5 251.5z" />
    <glyph glyph-name="N" unicode="N" horiz-adv-x="599" 
d="M150 -44l-1 -30l-119 -12q0 69 10 292q5 111 5 177q0 52 -10 225q-5 86 -5 137l98 8q57 -41 113 -102q45 -48 97 -118l90 -124q9 61 14 122.5t5 123.5q0 43 -3.5 75.5t-12.5 86.5q46 0 99 -20q0 -58 -3 -136q-7 -182 -7 -228q0 -75 7 -152t36 -284l-147 9
q-68 130 -135 260q-83 152 -158 244q0 -77 6.5 -178.5t13.5 -202t7 -173.5z" />
    <glyph glyph-name="Ntilde" unicode="&#xd1;" horiz-adv-x="592" 
d="M70 876v8q0 31 23.5 43.5t58.5 12.5q61 0 106.5 -37.5t71.5 -37.5q18 0 24.5 7.5t6.5 23.5q0 10 -1 19.5t-2 19.5l67 3q0 -54 -24 -84.5t-77 -30.5q-37 0 -86 41t-76 41q-11 0 -14 -8.5t-3 -23.5zM150 -44l-1 -30l-119 -12q0 69 10 292q5 111 5 177q0 52 -10 225
q-5 86 -5 137l98 8q57 -41 113 -102q45 -48 97 -118l90 -124q9 61 14 122.5t5 123.5q0 43 -3.5 75.5t-12.5 86.5q46 0 99 -20q0 -58 -3 -136q-7 -182 -7 -228q0 -75 7 -152t36 -284l-147 9q-68 130 -135 260q-83 152 -158 244q0 -77 6.5 -178.5t13.5 -202t7 -173.5z" />
    <glyph glyph-name="O" unicode="O" horiz-adv-x="622" 
d="M580 401q0 -119 -68 -246q-79 -148 -187 -148q-124 0 -226 137q-94 127 -94 256q0 151 72 264q83 130 225 130q121 0 205 -141q73 -122 73 -252zM194 388q0 -65 36 -184q42 -138 84 -138q31 0 62 134q26 113 26 167q0 65 -33 200q-39 158 -76 158t-71 -149
q-28 -123 -28 -188z" />
    <glyph glyph-name="OE" unicode="&#x152;" horiz-adv-x="852" 
d="M434 667l378 22l3 -85q-45 -19 -104 -30q-15 -1 -180 -19l12 -146l140 2l2 -132l-160 5l8 -194l208 10l7 -87l-318 -5v78q-57 -85 -132 -85q-101 0 -186 114q-78 105 -78 211q0 126 60 219q68 108 186 108q88 0 153 -92zM190 316q0 -53 30 -152q35 -114 69 -114
q27 0 52 111q22 94 22 138q0 54 -27 166q-33 130 -64 130q-30 0 -58 -123q-24 -102 -24 -156z" />
    <glyph glyph-name="Oacute" unicode="&#xd3;" horiz-adv-x="629" 
d="M601 401q0 130 -73 252q-84 141 -205 141q-142 0 -225 -130q-72 -113 -72 -264q0 -129 94 -256q102 -137 226 -137q108 0 187 148q68 127 68 246zM215 388q0 65 28 188q34 149 71 149t76 -158q33 -135 33 -200q0 -54 -26 -167q-31 -134 -62 -134q-42 0 -84 138
q-36 119 -36 184zM248 839q59 47 91 114l62 -58q-65 -17 -104 -80z" />
    <glyph glyph-name="Ocircumflex" unicode="&#xd4;" horiz-adv-x="618" 
d="M593 401q0 130 -73 252q-84 141 -205 141q-142 0 -225 -130q-72 -113 -72 -264q0 -129 94 -256q102 -137 226 -137q108 0 187 148q68 127 68 246zM207 388q0 65 28 188q34 149 71 149t76 -158q33 -135 33 -200q0 -54 -26 -167q-31 -134 -62 -134q-42 0 -84 138
q-36 119 -36 184zM350 831q0 34 -7 52t-22 37q-38 -28 -51.5 -49.5t-13.5 -49.5l-89 -1q26 31 61 65q31 33 67 67l67 -1q13 -29 29 -55t46 -65h-87z" />
    <glyph glyph-name="Odieresis" unicode="&#xd6;" horiz-adv-x="637" 
d="M599 401q0 130 -73 252q-84 141 -205 141q-142 0 -225 -130q-72 -113 -72 -264q0 -129 94 -256q102 -137 226 -137q108 0 187 148q68 127 68 246zM213 388q0 65 28 188q34 149 71 149t76 -158q33 -135 33 -200q0 -54 -26 -167q-31 -134 -62 -134q-42 0 -84 138
q-36 119 -36 184zM288 863q0 -7 -5 -13.5t-12.5 -11t-16 -7.5t-15.5 -3q-16 0 -21 11t-5 28q0 16 12 31t29 15q14 0 24 -17.5t10 -32.5zM428 863q0 -7 -5 -13.5t-12.5 -11t-16 -7.5t-15.5 -3q-16 0 -21 11t-5 28q0 16 12 31t29 15q14 0 24 -17.5t10 -32.5z" />
    <glyph glyph-name="Ograve" unicode="&#xd2;" horiz-adv-x="634" 
d="M609 401q0 -119 -68 -246q-79 -148 -187 -148q-124 0 -226 137q-94 127 -94 256q0 151 72 264q83 130 225 130q121 0 205 -141q73 -122 73 -252zM223 388q0 -65 36 -184q42 -138 84 -138q31 0 62 134q26 113 26 167q0 65 -33 200q-39 158 -76 158t-71 -149
q-28 -123 -28 -188zM335 815q-39 63 -104 80l62 58q32 -67 91 -114z" />
    <glyph glyph-name="Oslash" unicode="&#xd8;" horiz-adv-x="618" 
d="M601 749l-83 -102q55 -102 55 -211q0 -182 -63 -300q-74 -137 -174 -137q-108 0 -199 112l-71 -87l-48 44l79 101q-58 97 -58 266q0 140 67 245q77 121 209 121q89 0 156 -83l61 77zM248 182q39 -128 78 -128q29 0 58 124q24 105 24 155q0 107 -11 166l-163 -270
q6 -22 14 -47zM215 424q0 -15 1 -103l159 274q-35 142 -69 142t-65 -139q-26 -114 -26 -174z" />
    <glyph glyph-name="Otilde" unicode="&#xd5;" horiz-adv-x="621" 
d="M599 401q0 130 -73 252q-84 141 -205 141q-142 0 -225 -130q-72 -113 -72 -264q0 -129 94 -256q102 -137 226 -137q108 0 187 148q68 127 68 246zM213 388q0 65 28 188q34 149 71 149t76 -158q33 -135 33 -200q0 -54 -26 -167q-31 -134 -62 -134q-42 0 -84 138
q-36 119 -36 184zM117 879v8q0 31 23.5 43.5t58.5 12.5q61 0 106.5 -37.5t71.5 -37.5q18 0 24.5 7.5t6.5 23.5q0 10 -1 19.5t-2 19.5l67 3q0 -54 -24 -84.5t-77 -30.5q-37 0 -86 41t-76 41q-11 0 -14 -8.5t-3 -23.5z" />
    <glyph glyph-name="P" unicode="P" horiz-adv-x="414" 
d="M122 653l-1 -239q25 -11 51 -11q34 0 51 48q12 35 12 79q0 54 -29 84t-84 39zM117 348l43 -328l-157 -13q13 84 19 148.5t6 132.5q0 64 -12 279q-6 107 -6 168q80 22 157 22q100 0 148 -55q45 -51 45 -153q0 -78 -47 -148q-53 -78 -130 -78q-20 0 -43 11q-9 4 -23 14z
" />
    <glyph glyph-name="Q" unicode="Q" horiz-adv-x="649" 
d="M315 76q57 0 96 47q-51 72 -101 125q-58 62 -120 107h182l79 -120q11 47 16.5 88.5t5.5 82.5q0 81 -41 185q-49 125 -116 125q-92 0 -131 -120q-25 -77 -25 -195q0 -107 30 -198q42 -127 125 -127zM545 -115q-46 77 -58 99q-19 34 -31 60q-58 -49 -136 -49
q-137 0 -232 150q-83 132 -83 278q0 139 79 253q88 128 221 128t206 -151q57 -118 57 -268q0 -70 -11 -134t-35 -118q105 -150 229 -271z" />
    <glyph glyph-name="R" unicode="R" horiz-adv-x="463" 
d="M419 13l-170 -11q4 27 5 50t1 55q0 76 -15 140q-23 100 -72 100q-22 0 -41 -14l37 -318h-161q11 79 18.5 153t7.5 142q0 62 -5 148t-9.5 172.5t-4.5 149.5q55 7 119 7q137 0 199 -46q73 -54 73 -186q0 -51 -38.5 -100.5t-88.5 -59.5q52 -52 96 -179q37 -108 49 -203z
M133 707l-6 -265h14q51 0 69 10q23 13 34 59q8 34 8 65q0 58 -30.5 90t-88.5 41z" />
    <glyph glyph-name="S" unicode="S" horiz-adv-x="490" 
d="M221 740q54 0 105 -51q39 -39 69 -100l-114 -63l1 18q0 44 -22 86q-26 50 -67 50q-42 0 -62 -32q-16 -26 -16 -72q0 -93 76 -192q70 -84 141 -167q77 -101 77 -193q0 -108 -103 -159q-80 -40 -201 -40q-97 0 -180.5 13t-160.5 46l54 67q50 -14 104 -29t99 -15
q82 0 150 21q98 30 98 93q0 28 -67 106q-90 105 -125 166q-67 117 -67 242q0 83 63 144t148 61z" />
    <glyph glyph-name="Scaron" unicode="&#x160;" horiz-adv-x="501" 
d="M303 822q54 0 105 -51q39 -39 69 -100l-114 -63l1 17q0 45 -22 87q-26 50 -67 50q-42 0 -59.5 -29.5t-17.5 -74.5q0 -93 76 -193q70 -84 141 -167q76 -100 76 -193q0 -106 -103 -158q-80 -40 -200 -40q-101 0 -182 12t-160 46l54 67q88 -25 100 -28q59 -15 103 -15
q85 0 150 20q98 30 98 93q0 28 -67 106q-89 103 -125 167q-67 117 -67 242q0 83 63 144t148 61zM397 979q-30 -39 -46 -65t-29 -55l-67 -1q-36 34 -67 67q-35 34 -61 65l89 -1q0 -28 13.5 -49.5t51.5 -49.5q15 19 22 37t7 52h87z" />
    <glyph glyph-name="T" unicode="T" horiz-adv-x="745" 
d="M165 641l-140 2l-19 156l707 13l-13 -80l-415 -47l40 -666h-182z" />
    <glyph glyph-name="Thorn" unicode="&#xde;" horiz-adv-x="592" 
d="M301 12l-157 -13q5 33 6.5 74.5t5.5 116.5q9 170 9 212v5q-3 63 -8 152q-4 72 -6 123q-1 13 -2 28q-5 50 -16 153l146 11q-6 -69 -11 -170q20 2 40 2q100 0 148 -55q45 -51 45 -153q0 -78 -47 -148q-53 -78 -130 -78q-20 0 -43 11q-7 3 -16 8q2 -28 5 -58q7 -37 31 -221z
M263 602v-1l-1 -238q25 -11 51 -11q34 0 51 48q12 35 12 79q0 54 -29 84t-84 39z" />
    <glyph glyph-name="U" unicode="U" horiz-adv-x="548" 
d="M27 488q0 77 -5.5 157t-15.5 167l196 -37q-16 -112 -22 -159q-11 -90 -16.5 -166t-5.5 -154v-19q0 -48 9 -73q14 -38 52 -38q66 0 100 80q26 61 26 136q0 96 -17 207q-13 87 -41 203l210 20q-21 -116 -31.5 -216.5t-10.5 -205.5q0 -173 -60 -244q-50 -59 -144 -59
t-160 48q-73 53 -73 143q0 9 7 132q2 35 2 78z" />
    <glyph glyph-name="Uacute" unicode="&#xda;" horiz-adv-x="545" 
d="M43 488q0 -43 -2 -78q-7 -123 -7 -132q0 -90 73 -143q66 -48 160 -48t144 59q60 71 60 244q0 105 10.5 205.5t31.5 216.5l-210 -20q28 -116 41 -203q17 -111 17 -207q0 -75 -26 -136q-34 -80 -100 -80q-38 0 -52 38q-9 25 -9 73v19q0 78 5.5 154t16.5 166q6 47 22 159
l-196 37q10 -87 15.5 -167t5.5 -157zM222 830q59 47 91 114l62 -58q-65 -17 -104 -80z" />
    <glyph glyph-name="Ucircumflex" unicode="&#xdb;" horiz-adv-x="530" 
d="M27 488q0 -43 -2 -78q-7 -123 -7 -132q0 -90 73 -143q66 -48 160 -48t144 59q60 71 60 244q0 105 10.5 205.5t31.5 216.5l-210 -20q28 -116 41 -203q17 -111 17 -207q0 -75 -26 -136q-34 -80 -100 -80q-38 0 -52 38q-9 25 -9 73v19q0 78 5.5 154t16.5 166q6 47 22 159
l-196 37q10 -87 15.5 -167t5.5 -157zM306 837q0 34 -7 52t-22 37q-38 -28 -51.5 -49.5t-13.5 -49.5l-89 -1q26 31 61 65q31 33 67 67l67 -1q13 -29 29 -55t46 -65h-87z" />
    <glyph glyph-name="Udieresis" unicode="&#xdc;" horiz-adv-x="522" 
d="M38 488q0 -43 -2 -78q-7 -123 -7 -132q0 -90 73 -143q66 -48 160 -48t144 59q60 71 60 244q0 105 10.5 205.5t31.5 216.5l-210 -20q28 -116 41 -203q17 -111 17 -207q0 -75 -26 -136q-34 -80 -100 -80q-38 0 -52 38q-9 25 -9 73v19q0 78 5.5 154t16.5 166q6 47 22 159
l-196 37q10 -87 15.5 -167t5.5 -157zM232 863q0 -7 -5 -13.5t-12.5 -11t-16 -7.5t-15.5 -3q-16 0 -21 11t-5 28q0 16 12 31t29 15q14 0 24 -17.5t10 -32.5zM372 863q0 -7 -5 -13.5t-12.5 -11t-16 -7.5t-15.5 -3q-16 0 -21 11t-5 28q0 16 12 31t29 15q14 0 24 -17.5t10 -32.5
z" />
    <glyph glyph-name="Ugrave" unicode="&#xd9;" horiz-adv-x="541" 
d="M48 488q0 77 -5.5 157t-15.5 167l196 -37q-16 -112 -22 -159q-11 -90 -16.5 -166t-5.5 -154v-19q0 -48 9 -73q14 -38 52 -38q66 0 100 80q26 61 26 136q0 96 -17 207q-13 87 -41 203l210 20q-21 -116 -31.5 -216.5t-10.5 -205.5q0 -173 -60 -244q-50 -59 -144 -59
t-160 48q-73 53 -73 143q0 9 7 132q2 35 2 78zM286 831q-39 63 -104 80l62 58q32 -67 91 -114z" />
    <glyph glyph-name="V" unicode="V" horiz-adv-x="531" 
d="M336 707l159 18q-10 -103 -33 -235q-8 -48 -44 -237q-29 -153 -41 -237l-189 18q-66 144 -100 233q-43 115 -63 223t-20 245l140 -29q0 -107 16 -204.5t48 -202.5q24 -80 70 -201z" />
    <glyph glyph-name="W" unicode="W" horiz-adv-x="755" 
d="M173 -5q-11 117 -45 276q-18 84 -63.5 264t-64.5 280l189 -31v-104q0 -109 5.5 -203t23.5 -180l66 493l178 -4l49 -479q23 116 31 228t8 255l181 19q-77 -228 -114 -411q-44 -218 -44 -423l-176 19l-32 369l-28 -369z" />
    <glyph glyph-name="X" unicode="X" horiz-adv-x="586" 
d="M191 389q-60 97 -105.5 194t-85.5 208l164 11q15 -98 34 -172q23 -94 55 -165q46 62 64 158q13 70 13 172l205 -4q-72 -96 -116 -191q-40 -85 -74 -209q93 -72 145 -182q40 -85 69 -225l-171 20q0 117 -19.5 168t-95.5 131q-56 -27 -96 -137q-24 -65 -43 -171l-134 5
q25 115 71 207q43 85 120 182z" />
    <glyph glyph-name="Y" unicode="Y" horiz-adv-x="477" 
d="M293 370q-20 -8 -37.5 -11.5t-36.5 -3.5q-55 0 -107 92q-41 73 -76 192q-27 93 -35 160l170 11q-4 -27 -5 -50t-1 -55q0 -76 15 -140q24 -100 72 -100q22 0 41 14l-37 318h161q-15 -94 -21 -135q-19 -130 -19 -228q0 -63 3 -147q7 -197 7 -246l-177 -27z" />
    <glyph glyph-name="Yacute" unicode="&#xdd;" horiz-adv-x="477" 
d="M293 370q-20 -8 -37.5 -11.5t-36.5 -3.5q-55 0 -107 92q-41 73 -76 192q-27 93 -35 160l170 11q-4 -27 -5 -50t-1 -55q0 -76 15 -140q24 -100 72 -100q22 0 41 14l-37 318h161q-15 -94 -21 -135q-19 -130 -19 -228q0 -63 3 -147q7 -197 7 -246l-177 -27zM181 842
q59 47 91 114l62 -58q-65 -17 -104 -80z" />
    <glyph glyph-name="Ydieresis" unicode="&#x178;" horiz-adv-x="478" 
d="M319 370q-20 -8 -37.5 -11.5t-36.5 -3.5q-55 0 -107 92q-41 73 -76 192q-27 93 -35 160l170 11q-4 -27 -5 -50t-1 -55q0 -76 15 -140q24 -100 72 -100q22 0 41 14l-37 318h161q-15 -94 -21 -135q-19 -130 -19 -228q0 -63 3 -147q7 -197 7 -246l-177 -27zM215 906
q0 -7 -5 -13.5t-12.5 -11t-16 -7.5t-15.5 -3q-16 0 -21 11t-5 28q0 16 12 31t29 15q14 0 24 -17.5t10 -32.5zM355 906q0 -7 -5 -13.5t-12.5 -11t-16 -7.5t-15.5 -3q-16 0 -21 11t-5 28q0 16 12 31t29 15q14 0 24 -17.5t10 -32.5z" />
    <glyph glyph-name="Z" unicode="Z" horiz-adv-x="560" 
d="M528 242l-44 -228q-34 0 -112.5 2t-83.5 2q-138 0 -275 -18q34 124 69 249q48 155 101 258q68 131 156 198l-317 -30l-22 124q124 -14 240 -14q60 0 123 8.5t128 23.5q-57 -105 -107 -222q-45 -107 -85 -226q-34 -102 -72 -237q54 0 116 29q168 78 185 81z" />
    <glyph glyph-name="Zcaron" unicode="&#x17d;" horiz-adv-x="480" 
d="M528 242l-44 -228q-34 0 -112.5 2t-83.5 2q-138 0 -275 -18q34 124 69 249q48 155 101 258q68 131 156 198l-317 -30l-22 124q124 -14 240 -14q60 0 123 8.5t128 23.5q-57 -105 -107 -222q-45 -107 -85 -226q-34 -102 -72 -237q54 0 116 29q168 78 185 81zM380 944
q-30 -39 -46 -65t-29 -55l-67 -1q-36 34 -67 67q-35 34 -61 65l89 -1q0 -28 13.5 -49.5t51.5 -49.5q15 19 22 37t7 52h87z" />
    <glyph glyph-name="a" unicode="a" horiz-adv-x="395" 
d="M184 320q-27 0 -40 -23.5t-13 -55.5q0 -35 14 -63q12 -31 33 -31q11 0 22 3t29 16q1 37 2 67.5t2 67.5q-13 10 -24 14.5t-25 4.5zM180 406q17 0 33.5 -4t32.5 -11v45q0 31 -4 59t-11 53q-11 30 -25 46.5t-32 16.5q-10 0 -39 -29q-13 -14 -24.5 -29.5t-18.5 -28.5l-111 1
q29 75 85 121q58 46 110 46q60 0 108 -36q51 -36 60 -99v1q11 -53 14 -122q3 -32 4.5 -79.5t1.5 -106.5v-97l-1 -81l-130 -12v12q-32 -18 -70 -18q-63 0 -105 60v-1q-35 50 -35 112q0 40 9.5 72t25.5 55q21 26 51.5 40t70.5 14z" />
    <glyph glyph-name="aacute" unicode="&#xe1;" horiz-adv-x="425" 
d="M163 763q59 47 91 114l62 -58q-65 -17 -104 -80zM184 320q-27 0 -40 -23.5t-13 -55.5q0 -35 14 -63q12 -31 33 -31q11 0 22 3t29 16q1 37 2 67.5t2 67.5q-13 10 -24 14.5t-25 4.5zM180 406q17 0 33.5 -4t32.5 -11v45q0 31 -4 59t-11 53q-11 30 -25 46.5t-32 16.5
q-10 0 -39 -29q-13 -14 -24.5 -29.5t-18.5 -28.5l-111 1q29 75 85 121q58 46 110 46q60 0 108 -36q51 -36 60 -99v1q11 -53 14 -122q3 -32 4.5 -79.5t1.5 -106.5v-97l-1 -81l-130 -12v12q-32 -18 -70 -18q-63 0 -105 60v-1q-35 50 -35 112q0 40 9.5 72t25.5 55
q21 26 51.5 40t70.5 14z" />
    <glyph glyph-name="acircumflex" unicode="&#xe2;" horiz-adv-x="415" 
d="M237 737q0 34 -7 52t-22 37q-38 -28 -51.5 -49.5t-13.5 -49.5l-89 -1q26 31 61 65q31 33 67 67l67 -1q13 -29 29 -55t46 -65h-87zM184 320q-27 0 -40 -23.5t-13 -55.5q0 -35 14 -63q12 -31 33 -31q11 0 22 3t29 16q1 37 2 67.5t2 67.5q-13 10 -24 14.5t-25 4.5zM180 406
q17 0 33.5 -4t32.5 -11v45q0 31 -4 59t-11 53q-11 30 -25 46.5t-32 16.5q-10 0 -39 -29q-13 -14 -24.5 -29.5t-18.5 -28.5l-111 1q29 75 85 121q58 46 110 46q60 0 108 -36q51 -36 60 -99v1q11 -53 14 -122q3 -32 4.5 -79.5t1.5 -106.5v-97l-1 -81l-130 -12v12
q-32 -18 -70 -18q-63 0 -105 60v-1q-35 50 -35 112q0 40 9.5 72t25.5 55q21 26 51.5 40t70.5 14z" />
    <glyph glyph-name="acute" unicode="&#xb4;" horiz-adv-x="235" 
d="M21 530q77 61 118 148l81 -75q-85 -23 -135 -104z" />
    <glyph glyph-name="adieresis" unicode="&#xe4;" horiz-adv-x="437" 
d="M182 746q0 -7 -5 -13.5t-12.5 -11t-16 -7.5t-15.5 -3q-16 0 -21 11t-5 28q0 16 12 31t29 15q14 0 24 -17.5t10 -32.5zM322 746q0 -7 -5 -13.5t-12.5 -11t-16 -7.5t-15.5 -3q-16 0 -21 11t-5 28q0 16 12 31t29 15q14 0 24 -17.5t10 -32.5zM217 320q-27 0 -40 -23.5
t-13 -55.5q0 -35 14 -63q12 -31 33 -31q11 0 22 3t29 16q1 37 2 67.5t2 67.5q-13 10 -24 14.5t-25 4.5zM213 406q17 0 33.5 -4t32.5 -11v45q0 31 -4 59t-11 53q-11 30 -25 46.5t-32 16.5q-10 0 -39 -29q-13 -14 -24.5 -29.5t-18.5 -28.5l-111 1q29 75 85 121q58 46 110 46
q60 0 108 -36q51 -36 60 -99v1q11 -53 14 -122q3 -32 4.5 -79.5t1.5 -106.5v-97l-1 -81l-130 -12v12q-32 -18 -70 -18q-63 0 -105 60v-1q-35 50 -35 112q0 40 9.5 72t25.5 55q21 26 51.5 40t70.5 14z" />
    <glyph glyph-name="ae" unicode="&#xe6;" horiz-adv-x="753" 
d="M199 354q27 0 43.5 -4t32.5 -11v45q0 31 -4 59t-11 53q-11 30 -25 46.5t-32 16.5q-24 0 -39 -29q-13 -14 -24.5 -29.5t-18.5 -28.5l-111 1q29 75 85 121q58 46 110 46q60 0 108 -36q51 -36 60 -99v1q4 -18 6.5 -39.5t4.5 -44.5q48 56 160 56q86 0 133 -74q39 -62 39 -153
h-246l2 -80q5 -101 58 -101q29 0 53.5 16t24.5 43q0 17 -5 39l120 3q-25 -84 -61 -116q-42 -38 -126 -38q-89 0 -168 65l-1 -62l-3 -1v-1l-72 -9v2l-30 -3v10q-30 -17 -74 -17q-13 0 -25 2q-49 7 -86 59v-1q-35 50 -35 112q0 40 9.5 72t25.5 55q21 26 51.5 40t70.5 14z
M203 268q-27 0 -40 -23.5t-13 -55.5q0 -35 14 -63q12 -31 33 -31q11 0 27 3t34 16q1 37 2 67.5t2 67.5q-13 10 -24 14.5t-35 4.5zM419 315l151 4v13q0 43 -19 65t-61 22q-39 0 -55.5 -23t-16.5 -64z" />
    <glyph glyph-name="agrave" unicode="&#xe0;" horiz-adv-x="400" 
d="M201 719q-39 63 -104 80l62 58q32 -67 91 -114zM184 320q-27 0 -40 -23.5t-13 -55.5q0 -35 14 -63q12 -31 33 -31q11 0 22 3t29 16q1 37 2 67.5t2 67.5q-13 10 -24 14.5t-25 4.5zM180 406q17 0 33.5 -4t32.5 -11v45q0 31 -4 59t-11 53q-11 30 -25 46.5t-32 16.5
q-10 0 -39 -29q-13 -14 -24.5 -29.5t-18.5 -28.5l-111 1q29 75 85 121q58 46 110 46q60 0 108 -36q51 -36 60 -99v1q11 -53 14 -122q3 -32 4.5 -79.5t1.5 -106.5v-97l-1 -81l-130 -12v12q-32 -18 -70 -18q-63 0 -105 60v-1q-35 50 -35 112q0 40 9.5 72t25.5 55
q21 26 51.5 40t70.5 14z" />
    <glyph glyph-name="ampersand" unicode="&#x26;" horiz-adv-x="665" 
d="M135 687q0 -32 13 -68q9 -25 29 -62q36 22 40 25q25 19 25 34l-3 31q-8 59 -9 62q-11 26 -53 26t-42 -48zM228 467q22 -51 59 -103q31 -43 75 -92q2 15 5 41.5t3 51.5l-2 25l189 -149q-56 -41 -70 -55q-22 -21 -29 -39l119 -211l-177 14q-13 71 -35 127
q-19 -37 -49.5 -58t-70.5 -21q-88 0 -161 75t-73 162q0 64 25 130q22 58 62 116q-27 51 -39 85q-17 48 -17 90q0 60 45.5 100.5t104.5 40.5q63 0 109 -33.5t46 -94.5q0 -64 -39 -114zM251 99q19 0 43 26q14 15 31 41q-34 56 -75 108.5t-87 102.5q-11 -10 -13 -35.5t-2 -64.5
q0 -38 6 -68.5t24.5 -54t30.5 -34.5q23 -21 42 -21z" />
    <glyph glyph-name="aring" unicode="&#xe5;" horiz-adv-x="415" 
d="M199 853q-19 0 -33 -13t-14 -32q0 -17 15 -32q17 -15 34 -15q20 0 33 18q5 7 8 17.5t3 21.5q0 17 -13 27q-6 4 -14 6t-19 2zM118 828q0 15 7 27t22 20h-1q21 12 56 12q30 0 54 -22t24 -53q0 -34 -31 -61q-28 -23 -64 -23q-33 0 -52 37q-8 14 -11.5 30t-3.5 33zM184 320
q-27 0 -40 -23.5t-13 -55.5q0 -35 14 -63q12 -31 33 -31q11 0 22 3t29 16q1 37 2 67.5t2 67.5q-13 10 -24 14.5t-25 4.5zM180 406q17 0 33.5 -4t32.5 -11v45q0 31 -4 59t-11 53q-11 30 -25 46.5t-32 16.5q-10 0 -39 -29q-13 -14 -24.5 -29.5t-18.5 -28.5l-111 1
q29 75 85 121q58 46 110 46q60 0 108 -36q51 -36 60 -99v1q11 -53 14 -122q3 -32 4.5 -79.5t1.5 -106.5v-97l-1 -81l-130 -12v12q-32 -18 -70 -18q-63 0 -105 60v-1q-35 50 -35 112q0 40 9.5 72t25.5 55q21 26 51.5 40t70.5 14z" />
    <glyph glyph-name="asciicircum" unicode="^" horiz-adv-x="470" 
d="M305 502q0 70 -11 108.5t-37 77.5q-57 -58 -79 -103.5t-22 -106.5l-140 -1q41 66 95 138q50 69 107 140l105 -1q19 -63 45.5 -117t72.5 -137z" />
    <glyph glyph-name="asciitilde" unicode="~" horiz-adv-x="438" 
d="M11 596l-1 39q0 52 38 98q40 46 94 46q43 0 95 -58v1q40 -46 57 -46q16 0 24 20q3 10 5.5 28t2.5 42h93q0 -80 -35 -122q-36 -45 -96 -45q-40 0 -110 80q-25 28 -39 28q-23 0 -32 -20.5t-9 -49.5q0 -5 0.5 -12.5t4.5 -28.5h-92z" />
    <glyph glyph-name="asterisk" unicode="*" horiz-adv-x="337" 
d="M276 610l-33 -68q-15 21 -35 41q-12 12 -40 36q3 -30 9.5 -57t17.5 -51l-62 18q2 8 5 22.5t3 22.5l-3 45q-35 -35 -53 -82l-59 59q45 15 68 26q14 7 37 24q-56 28 -106 42l34 63q28 -43 76 -70l-18 93l64 1l-14 -94l70 53l31 -55q-50 -6 -101 -33q22 -14 49.5 -22.5
t59.5 -13.5z" />
    <glyph glyph-name="at" unicode="@" horiz-adv-x="754" 
d="M458 89q-16 -37 -39 -59q-28 -27 -62 -27q-62 0 -104.5 54t-42.5 118q0 85 61.5 157.5t144.5 72.5q10 0 34 -8.5t42 -14.5l2 26q0 41 -23 74q-26 35 -65 35q-33 0 -56 -23.5t-23 -60.5q0 -8 1 -12l-130 60q9 62 60.5 105.5t116.5 43.5q87 0 135 -83q40 -67 40 -163
q0 -34 -6.5 -112t-6.5 -103v-52.5t2 -43.5l15 -11q55 0 86 120q21 83 21 166q0 144 -53 240q-66 123 -197 123q-155 0 -227 -116q-56 -95 -56 -259q0 -209 71 -318q60 -90 165 -90q49 0 93 6.5t88 24.5l-23 -144q-230 38 -298 65q-108 40 -150 136t-42 314q0 213 73 325
q89 150 294 159q133 -9 221 -100q66 -68 89 -174t20 -243q-7 -138 -31 -193q-37 -94 -151 -94q-32 0 -55 25q-20 19 -34 54zM418 342q-9 0 -19.5 -8t-15.5 -11q-31 -27 -46.5 -69t-15.5 -91q0 -39 15.5 -61.5t51.5 -22.5q29 0 41 20.5t12 51.5l4 176q-5 7 -12 11t-15 4z" />
    <glyph glyph-name="atilde" unicode="&#xe3;" horiz-adv-x="405" 
d="M25 784v8q0 31 23.5 43.5t58.5 12.5q61 0 106.5 -37.5t71.5 -37.5q18 0 24.5 7.5t6.5 23.5q0 10 -1 19.5t-2 19.5l67 3q0 -54 -24 -84.5t-77 -30.5q-37 0 -86 41t-76 41q-11 0 -14 -8.5t-3 -23.5zM184 320q-27 0 -40 -23.5t-13 -55.5q0 -35 14 -63q12 -31 33 -31
q11 0 22 3t29 16q1 37 2 67.5t2 67.5q-13 10 -24 14.5t-25 4.5zM180 406q17 0 33.5 -4t32.5 -11v45q0 31 -4 59t-11 53q-11 30 -25 46.5t-32 16.5q-10 0 -39 -29q-13 -14 -24.5 -29.5t-18.5 -28.5l-111 1q29 75 85 121q58 46 110 46q60 0 108 -36q51 -36 60 -99v1
q11 -53 14 -122q3 -32 4.5 -79.5t1.5 -106.5v-97l-1 -81l-130 -12v12q-32 -18 -70 -18q-63 0 -105 60v-1q-35 50 -35 112q0 40 9.5 72t25.5 55q21 26 51.5 40t70.5 14z" />
    <glyph glyph-name="b" unicode="b" horiz-adv-x="414" 
d="M167 13q-77 0 -157 22q0 64 12 279q6 107 6 168q0 68 -6 132.5t-19 148.5l157 -13l-45 -375q29 29 51 41.5t39 12.5q75 0 118 -69q37 -59 37 -139q0 -102 -44 -153q-48 -55 -149 -55zM119 82q47 7 83 31q46 30 46 72q0 38 -17 99q-21 75 -46 75q-21 0 -45 -18
q-4 -3 -22 -20z" />
    <glyph glyph-name="backslash" unicode="\" horiz-adv-x="519" 
d="M165 664q62 -211 133 -349t205 -307l-184 -5q-59 213 -121 346q-66 140 -190 311z" />
    <glyph glyph-name="bar" unicode="|" horiz-adv-x="190" 
d="M151 403q0 -140 1.5 -181.5t3.5 -87.5q2 -18 2.5 -39t0.5 -42q2 -34 3 -70.5t1 -56.5l-101 11q0 17 1 44t3 50q2 53 1 89t-1 49q0 62 -3 178t-3 177q-2 13 -1.5 46.5t-3.5 49.5q0 26 -3.5 52.5t-6.5 51.5l118 6q0 -23 -1.5 -64.5t-4.5 -126.5q-6 -93 -6 -136z" />
    <glyph glyph-name="braceleft" unicode="{" horiz-adv-x="357" 
d="M294 -141q-10 -9 -22 -11.5t-30 -2.5q-116 0 -160 73q-32 53 -32 168q0 10 4 107q1 24 1 62l-53 70l53 67q0 31 -6 83q-13 113 -13 140q0 51 96 91q62 26 141 40l13 -118q-23 4 -40 6.5t-32 2.5q-12 0 -24.5 -2t-21.5 -6q-10 -15 -10 -32q0 -46 9 -117l15 -117l-49 -51
q16 -20 24.5 -57.5t8.5 -122.5q-1 -20 -1 -39.5v-38.5q0 -50 5.5 -78t20.5 -28q21 0 48 8t52 17z" />
    <glyph glyph-name="braceright" unicode="}" horiz-adv-x="388" 
d="M87 7q23 -5 47 -8.5t44 -3.5q29 0 29 29q0 42 -7 102q-16 138 -16 173q0 4 6 23.5t13 40.5l-56 44q2 34 3.5 71.5t1.5 55.5q0 66 -7 99q-10 45 -33 45t-51 -6q-14 -3 -49 -14l-1 119q191 0 231 -61q28 -43 28 -264l61 -59l-44 -77q4 -48 12 -113q15 -128 15 -191
q0 -47 -66 -88q-61 -38 -112 -38q-16 0 -38 9z" />
    <glyph glyph-name="bracketleft" unicode="[" horiz-adv-x="313" 
d="M115 693q42 0 83.5 6.5t91.5 18.5l-44 -97l-135 5q0 -50 -7 -151t-7 -153q0 -80 5 -148t17 -173l126 27l15 -95q-28 3 -70.5 4t-47.5 1h-58.5t-59.5 -1v766q30 -5 49 -7.5t42 -2.5z" />
    <glyph glyph-name="bracketright" unicode="]" horiz-adv-x="315" 
d="M30 -79l20 90l126 -9q10 98 16 172.5t6 144.5q0 82 -3.5 136.5t-15.5 176.5l-130 -9l-22 96q78 -24 153 -24q42 0 90 10q0 -104 -1 -247t-1.5 -273t-1.5 -260h-119h-48.5t-68.5 -4z" />
    <glyph glyph-name="brokenbar" unicode="&#xa6;" horiz-adv-x="672" 
d="M378 303l17 -444h-105q0 42 -3 180.5t-3 181.5q0 16 2.5 38.5t5.5 43.5h86zM377 883l17 -424h-105q0 42 -3 170.5t-3 171.5q0 16 2.5 38.5t5.5 43.5h86z" />
    <glyph glyph-name="bullet" unicode="&#x2022;" horiz-adv-x="431" 
d="M231 473q62 0 98.5 -39.5t36.5 -103.5q0 -68 -50.5 -117.5t-119.5 -49.5q-60 0 -97 39t-37 99q0 70 49 121t120 51z" />
    <glyph glyph-name="c" unicode="c" horiz-adv-x="519" 
d="M481 383l-134 -12q-7 78 -21 118q-26 74 -81 74q-42 0 -64.5 -76t-22.5 -211q0 -89 13 -122q24 -60 100 -60q23 0 35 8.5t12 31.5q0 21 -4 48.5t-5 37.5l148 5q0 -77 -48 -128t-125 -51q-126 0 -201 86q-71 81 -71 210q0 111 82 201.5t192 90.5q86 0 144 -85
q51 -75 51 -166z" />
    <glyph glyph-name="ccedilla" unicode="&#xe7;" horiz-adv-x="494" 
d="M249 1q39 0 62.5 -24t23.5 -63q0 -43 -26.5 -71.5t-68.5 -28.5q-80 0 -99 90l63 5q2 -14 13.5 -23.5t23.5 -9.5q32 0 32 37q0 14 -10 24.5t-27 10.5q-20 0 -34 -23l-49 23l45 100q-67 20 -113 74q-71 81 -71 210q0 111 82 201.5t192 90.5q86 0 144 -85q51 -75 51 -166
l-134 -12q-7 78 -21 118q-26 74 -81 74q-42 0 -64.5 -76t-22.5 -211q0 -89 13 -122q24 -60 100 -60q23 0 35 8.5t12 31.5q0 21 -4 48.5t-5 37.5l148 5q0 -77 -48 -128t-125 -51q-18 0 -34 2l-15 -37h12z" />
    <glyph glyph-name="cedilla" unicode="&#xb8;" horiz-adv-x="324" 
d="M172 -30q39 0 62.5 -24t23.5 -63q0 -43 -26.5 -71.5t-68.5 -28.5q-80 0 -99 90l63 5q2 -14 13.5 -23.5t23.5 -9.5q32 0 32 37q0 14 -10 24.5t-27 10.5q-20 0 -34 -23l-49 23l46 103h59l-21 -50h12z" />
    <glyph glyph-name="cent" unicode="&#xa2;" horiz-adv-x="566" 
d="M227 520q-5 -2 -49 -21.5t-41 -125.5v-48q0 -45 11 -91q15 -61 80 -88zM339 630q101 -12 153 -108q43 -90 43 -172l-134 -15q0 43 -12 98q-17 69 -54 81l-28 -389q34 17 49 50q9 43 12 87l132 3q0 -85 -39 -147q-61 -72 -140 -72l1 -102l-115 15l1 102q-99 41 -145 143
q-37 95 -33 206q0 94 42 142t145 66l5 110l120 12z" />
    <glyph glyph-name="circumflex" unicode="&#x2c6;" horiz-adv-x="305" 
d="M202 837q0 34 -7 52t-22 37q-38 -28 -51.5 -49.5t-13.5 -49.5l-89 -1q26 31 61 65q31 33 67 67l67 -1q13 -29 29 -55t46 -65h-87z" />
    <glyph glyph-name="colon" unicode=":" horiz-adv-x="197" 
d="M132 296q0 -35 -10 -48t-45 -13q-34 0 -50 17.5t-16 52.5q0 7 1.5 15t11.5 13q32 19 76 19q18 0 25 -17t7 -39zM137 593q0 -20 -22 -49.5t-40 -29.5q-21 0 -45 19.5t-24 39.5t15 47t33 27q19 0 51 -18.5t32 -35.5z" />
    <glyph glyph-name="comma" unicode="," horiz-adv-x="282" 
d="M205 66q-22 -48 -41.5 -99.5t-30.5 -100.5l-69 15q25 53 25 109q0 36 -9 71z" />
    <glyph glyph-name="copyright" unicode="&#xa9;" horiz-adv-x="640" 
d="M17 596q0 117 104 173q82 44 211 44q113 0 203 -83t90 -195q0 -131 -116 -225q-110 -89 -244 -89q-120 0 -190 133q-58 110 -58 242zM318 770q-106 0 -183 -70t-77 -175q0 -93 85.5 -174.5t178.5 -81.5q115 0 183 100q60 88 60 206q0 104 -74 153q-63 42 -173 42z
M365 562q-6 58 -18 87q-22 53 -64 53q-41 0 -58 -87q-10 -51 -10 -121q0 -66 12 -92q19 -41 77 -41q17 0 27 6.5t10 22.5t-3 34.5t-4 28.5l117 4q0 -59 -38.5 -94.5t-98.5 -35.5q-95 0 -155 59t-60 155q0 83 67.5 138.5t152.5 55.5q66 0 108.5 -48.5t42.5 -115.5z" />
    <glyph glyph-name="currency" unicode="&#xa4;" horiz-adv-x="578" 
d="M313 78q-87 0 -152 43q-39 -44 -63 -98l-82 74q60 17 101 62q-59 64 -59 162q0 75 56 125q-43 46 -97 77l81 75q13 -69 64 -119q59 30 132 30q66 0 115 -28q45 47 73 107l81 -75q-64 -18 -109 -68l2 -2q60 -65 60 -169q0 -75 -39 -124q37 -37 84 -64l-82 -74
q-10 56 -46 99q-50 -33 -120 -33zM243 462q-40 0 -62.5 -32t-22.5 -74q0 -37 20.5 -92.5t45.5 -73.5l44 -24q6 -3 26 -15q16 -8 27 -8q31 0 63.5 27t32.5 57l-1 11q-7 84 -47 147q-49 77 -126 77z" />
    <glyph glyph-name="d" unicode="d" horiz-adv-x="503" 
d="M304 64q-26 -21 -38 -28q-22 -13 -44 -13q-110 0 -156 39q-51 43 -51 152q0 98 45 154q49 62 145 62q37 0 65 -11q38 -15 43 -46l3 122q0 69 -8.5 130t-26.5 136l165 -4q-11 -121 -17.5 -217.5t-6.5 -196.5q0 -50 3 -117q7 -157 7 -197l-133 -4zM288 300q-14 17 -33 25
t-42 8q-20 0 -39 -6t-31.5 -49.5t-12.5 -73.5q0 -32 31 -63t63 -31q16 0 31.5 3.5t32.5 10.5v176z" />
    <glyph glyph-name="dagger" unicode="&#x2020;" horiz-adv-x="422" 
d="M271 660l-2 -178q32 0 68 2t65 4v-108l-135 -1l-7 -532h-101v531l-129 -1l-13 127q38 -5 73.5 -9.5t68.5 -7.5v159z" />
    <glyph glyph-name="daggerdbl" unicode="&#x2021;" horiz-adv-x="422" 
d="M271 660l-2 -178q32 0 68 2t65 4v-108l-135 -1l-2 -240q32 0 69.5 1.5t67.5 3.5v-108l-139 -1l-3 -189h-101v189l-129 -1l-13 126q38 -5 73.5 -9.5t68.5 -7.5v235l-129 -1l-13 127q38 -5 73.5 -9.5t68.5 -7.5v159z" />
    <glyph glyph-name="degree" unicode="&#xb0;" horiz-adv-x="320" 
d="M173 754q-18 7 -32 -4t-22 -30q-3 -9 -4.5 -20.5t-3.5 -28.5q0 -11 2.5 -24t8 -25t14 -21t20.5 -12q7 -3 15.5 -2.5t16.5 3t14.5 7.5t9.5 12q6 25 7.5 46t-3.5 41q-8 44 -43 58zM133 543q-29 11 -51 30.5t-34 44t-13 52.5t10 58q19 48 72 62q48 11 96 -8q56 -21 75 -69
t-2 -104q-20 -51 -61.5 -68t-91.5 2z" />
    <glyph glyph-name="dieresis" unicode="&#xa8;" horiz-adv-x="302" 
d="M117 823q0 -7 -5.5 -14t-14.5 -12t-18.5 -8t-18.5 -3q-19 0 -24.5 11.5t-5.5 29.5q0 17 14 33t34 16q16 0 27.5 -18.5t11.5 -34.5zM281 823q0 -7 -5.5 -14t-14.5 -12t-19 -8t-18 -3q-19 0 -24.5 11.5t-5.5 29.5q0 17 13.5 33t33.5 16q17 0 28.5 -18.5t11.5 -34.5z" />
    <glyph glyph-name="divide" unicode="&#xf7;" horiz-adv-x="495" 
d="M219 334q30 0 60.5 2t64.5 4q11 1 22 1.5t23 1.5t26 1.5t27.5 1t25 0.5h18.5l-7 -90q-43 0 -76 3q-74 6 -91 6q-42 0 -87.5 -3t-87.5 -8q-12 -2 -25 -3.5t-28 -3.5q-5 -1 -13.5 -2t-18 -1.5t-18.5 -1.5t-15 -2l-5 106q54 0 114 -6q61 -6 91 -6zM308 154q0 -10 -6.5 -18.5
t-16 -15t-20.5 -10.5t-19 -4q-23 0 -31 14.5t-8 37.5q0 21 15.5 39.5t38.5 18.5q9 0 17.5 -6t15 -15.5t10.5 -20.5t4 -20zM306 419q0 -10 -6.5 -18.5t-16 -15t-20 -10.5t-18.5 -4q-23 0 -31.5 14.5t-8.5 37.5q0 21 15.5 39.5t38.5 18.5q9 0 17.5 -6t15 -15.5t10.5 -20.5
t4 -20z" />
    <glyph glyph-name="dollar" unicode="$" horiz-adv-x="464" 
d="M170 641q0 22 -1 68.5t-1 70.5l102 -8l-21 -115q63 0 102 -53q10 -13 57 -109l-119 -3q0 27 -5 51.5t-15 52.5q-16 14 -34 14q-45 0 -69 -32t-24 -78q0 -56 73 -97l136 -70q74 -49 74 -122q0 -74 -49 -124q-44 -45 -121 -61v-50q0 -24 -3 -48l-57 -2q-12 0 -20.5 1.5
t-17.5 6.5q0 17 2 31q7 50 7 55l-1 5q-65 19 -98 58q-6 7 -61 98l123 23q0 -40 23.5 -76.5t62.5 -36.5q49 0 70 28q18 24 18 74q0 62 -66 99l-122 66q-67 52 -67 147q0 46 40 85q31 30 82 51z" />
    <glyph glyph-name="e" unicode="e" horiz-adv-x="455" 
d="M11 427q0 116 48 171.5t160 55.5q86 0 133 -74q39 -62 39 -153h-246l2 -80q5 -101 58 -101q29 0 53.5 16t24.5 43q0 17 -5 39l120 3q-25 -84 -61 -116q-42 -38 -126 -38q-92 0 -148 72q-52 66 -52 162zM94 491l151 4v13q0 43 -19 65t-61 22q-39 0 -55.5 -23t-16.5 -64z
" />
    <glyph glyph-name="eacute" unicode="&#xe9;" horiz-adv-x="451" 
d="M234 772q59 47 91 114l62 -58q-65 -17 -104 -80zM11 473q0 -107 57 -180q62 -80 164 -80q95 0 141 42q40 36 68 129l-134 -4q3 -14 4 -21t1 -22q0 -30 -27.5 -47t-59.5 -17q-58 0 -63 113q-1 43 -2 87h272q0 100 -43 169q-51 82 -147 82q-124 0 -177.5 -61.5
t-53.5 -189.5zM102 564q0 44 18.5 69t61.5 25q90 0 90 -98v-12l-170 -4v20z" />
    <glyph glyph-name="ecircumflex" unicode="&#xea;" horiz-adv-x="425" 
d="M11 427q0 -96 52 -162q56 -72 148 -72q84 0 126 38q36 32 61 116l-120 -3q5 -22 5 -39q0 -27 -24.5 -43t-53.5 -16q-53 0 -58 101l-2 80h246q0 91 -39 153q-47 74 -133 74q-112 0 -160 -55.5t-48 -171.5zM93 508q0 41 16.5 64t55.5 23q42 0 61 -22t19 -65v-13l-151 -4z
M250 696q0 34 -7 52t-22 37q-38 -28 -51.5 -49.5t-13.5 -49.5l-89 -1q26 31 61 65q31 33 67 67l67 -1q13 -29 29 -55t46 -65h-87z" />
    <glyph glyph-name="edieresis" unicode="&#xeb;" horiz-adv-x="427" 
d="M22 427q0 -96 52 -162q56 -72 148 -72q84 0 126 38q36 32 61 116l-120 -3q5 -22 5 -39q0 -27 -24.5 -43t-53.5 -16q-53 0 -58 101l-2 80h246q0 91 -39 153q-47 74 -133 74q-112 0 -160 -55.5t-48 -171.5zM104 508q0 41 16.5 64t55.5 23q42 0 61 -22t19 -65v-13l-151 -4z
M181 710q0 -7 -5 -13.5t-12.5 -11t-16 -7.5t-15.5 -3q-16 0 -21 11t-5 28q0 16 12 31t29 15q14 0 24 -17.5t10 -32.5zM321 710q0 -7 -5 -13.5t-12.5 -11t-16 -7.5t-15.5 -3q-16 0 -21 11t-5 28q0 16 12 31t29 15q14 0 24 -17.5t10 -32.5z" />
    <glyph glyph-name="egrave" unicode="&#xe8;" horiz-adv-x="435" 
d="M21 447q0 116 48 171.5t160 55.5q86 0 133 -74q39 -62 39 -153h-246l2 -80q5 -101 58 -101q29 0 53.5 16t24.5 43q0 17 -5 39l120 3q-25 -84 -61 -116q-42 -38 -126 -38q-92 0 -148 72q-52 66 -52 162zM104 511l151 4v13q0 43 -19 65t-61 22q-39 0 -55.5 -23t-16.5 -64z
M227 703q-39 63 -104 80l62 58q32 -67 91 -114z" />
    <glyph glyph-name="eight" unicode="8" horiz-adv-x="436" 
d="M317 363q46 0 67 -80q14 -53 14 -119q0 -71 -54.5 -114t-126.5 -43q-90 0 -142 57.5t-52 148.5q0 79 27 121q22 34 58 34q10 0 22 -3q-71 34 -102 98q-26 54 -26 140t55.5 148.5t141.5 62.5q92 0 151 -72q56 -68 56 -163q0 -70 -25 -126q-30 -66 -86 -95q8 2 13 3.5
t9 1.5zM196 745q-33 0 -49.5 -34.5t-16.5 -71.5q0 -50 22 -119q27 -85 63 -85q42 0 64 66q16 48 16 103q0 47 -25 90q-30 51 -74 51zM218 303q-41 0 -63 -41q-18 -33 -18 -78q0 -51 25 -90q29 -46 77 -46q24 0 31 65q3 30 3 63v35q0 31 -12 58q-15 34 -43 34z" />
    <glyph glyph-name="ellipsis" unicode="&#x2026;" horiz-adv-x="837" 
d="M457 57q0 -10 -6.5 -18.5t-16 -15t-20.5 -10.5t-19 -4q-23 0 -31 14.5t-8 37.5q0 21 15.5 39.5t38.5 18.5q9 0 17.5 -6t15 -15.5t10.5 -20.5t4 -20zM189 57q0 -10 -6.5 -18.5t-16 -15t-20 -10.5t-18.5 -4q-23 0 -31.5 14.5t-8.5 37.5q0 21 15.5 39.5t38.5 18.5
q9 0 17.5 -6t15 -15.5t10.5 -20.5t4 -20zM715 57q0 -10 -6.5 -18.5t-16 -15t-20 -10.5t-18.5 -4q-23 0 -31.5 14.5t-8.5 37.5q0 21 15.5 39.5t38.5 18.5q9 0 17.5 -6t15 -15.5t10.5 -20.5t4 -20z" />
    <glyph glyph-name="emdash" unicode="&#x2014;" horiz-adv-x="923" 
d="M398 307q60 0 117 2t120 5q25 2 53.5 3t56.5 2q24 1 49 2t48.5 1.5t43.5 1t34 0.5l-14 -110q-24 0 -61 1.5t-70 3.5q-72 3 -121 5t-67 2q-85 0 -178 -3.5t-177 -11.5q-18 -2 -36.5 -3.5t-39.5 -3.5q-14 -1 -31.5 -2.5t-36.5 -3.5t-38.5 -4t-36.5 -3l-8 133q31 0 87.5 -2
t119.5 -7q63 -4 109 -6t77 -2z" />
    <glyph glyph-name="endash" unicode="&#x2013;" horiz-adv-x="493" 
d="M218 311q30 0 60.5 2t64.5 4q11 1 22 1.5t23 1.5t26 1.5t27.5 1t25 0.5h18.5l-7 -90q-43 0 -76 3q-74 6 -91 6q-42 0 -87.5 -3t-87.5 -8q-12 -2 -25 -3.5t-28 -3.5q-5 -1 -13.5 -2t-18 -1.5t-18.5 -1.5t-15 -2l-5 106q54 0 114 -6q61 -6 91 -6z" />
    <glyph glyph-name="equal" unicode="=" horiz-adv-x="448" 
d="M409 541l-1 -89l-368 14l-18 84zM282 328q70 0 139 6v-97l-355 -4l-9 120q60 -11 118.5 -18t106.5 -7z" />
    <glyph glyph-name="eth" unicode="&#xf0;" horiz-adv-x="500" 
d="M237 364q-35 4 -58 -19.5t-28 -60.5q-5 -34 6 -86q12 -50 30 -72q19 -15 34.5 -30.5t39.5 -20.5q36 -6 68 13q17 10 25 26t10 28q0 43 -4 74.5t-20 65.5q-18 38 -43.5 57.5t-59.5 24.5zM371 414q23 -21 37 -39.5t26 -35.5q21 -29 28 -57t15 -63q2 -11 1 -33.5t-3 -33.5
q-5 -42 -27 -68t-53 -47q-48 -33 -109 -33q-9 0 -22 0.5t-21 1.5q-51 7 -89 28.5t-67 57.5q-49 59 -49 137q0 20 3 38q7 40 32.5 71.5t63.5 51.5q26 11 50 18.5t54 7.5q-12 14 -27.5 31t-27.5 33q-13 -11 -23.5 -19.5t-15.5 -12.5q-4 -3 -9 -7l-10 -8l-60 -44l-59 70
q26 16 48.5 30.5t41.5 29.5l36 28q-4 5 -8.5 12t-8.5 12q-11 16 -25.5 29t-36.5 32q-2 2 -6 5.5t-6 5.5l87 73q7 -17 12.5 -28.5t11 -19.5t11.5 -15t12 -16v1q8 -10 15 -19.5t15 -19.5q5 5 11.5 9.5t12.5 9.5q39 27 85 76l75 -81q-21 -10 -37 -18.5t-30 -17.5t-27.5 -18.5
t-28.5 -21.5q6 -9 14.5 -21.5t14.5 -21.5q7 -9 14.5 -18t15.5 -16z" />
    <glyph glyph-name="exclam" unicode="!" horiz-adv-x="289" 
d="M224 795q-40 -94 -54.5 -200.5t-14.5 -230.5q0 -28 5 -135q2 -43 2 -79l-125 -5q0 9 7 130q2 35 2 78q0 105 -13 221t-33 240zM142 69q0 -27 -14.5 -39.5t-42.5 -12.5q-24 0 -37.5 9t-13.5 31q0 25 23.5 38t50.5 13q17 0 25.5 -10.5t8.5 -28.5z" />
    <glyph glyph-name="exclamdown" unicode="&#xa1;" horiz-adv-x="212" 
d="M16 -180q32 75 43 158.5t11 181.5q0 23 -3 107q-3 33 -3 62l99 4q0 -7 -6 -102q-1 -27 -1 -62q0 -82 10.5 -174t25.5 -190zM81 393q0 21 11 31t34 10q18 0 29 -7t11 -25q0 -19 -18.5 -29.5t-39.5 -10.5q-14 0 -20.5 8t-6.5 23z" />
    <glyph glyph-name="f" unicode="f" horiz-adv-x="458" 
d="M9 65q0 70 3 140q9 211 9 236q0 176 -21 350l464 6l-17 -102q-47 5 -81 8t-61 3q-29 0 -75 -9.5t-87 -17.5l-23 -206l187 -5l-29 -121l-136 -8l-2 -79q0 -94 25 -179z" />
    <glyph glyph-name="five" unicode="5" horiz-adv-x="624" 
d="M152 521l190 40q15 3 28 3q73 0 116 -87q35 -70 35 -151q0 -118 -44 -211q-56 -119 -162 -119q-71 0 -166 58q-75 46 -140 112l183 78q29 -36 59 -72q36 -43 68 -61q35 9 63 68q24 51 24 92q0 45 -15 86q-19 53 -56 53q-50 0 -144 -30q-53 -17 -138 -50l-53 463
q89 -9 95 -10q76 -6 158 -6q75 0 145 8.5t167 25.5l-12 -189q-66 12 -132 25q-136 25 -221 25l-59 -2z" />
    <glyph glyph-name="florin" unicode="&#x192;" horiz-adv-x="645" 
d="M358 109l-2 -6q-8 -37 -16 -80v-1q-14 -83 -22 -111q-35 -84 -65.5 -102t-83.5 -14q-73 11 -126 92q-40 62 -38 130l66 -10q-1 -6 -3 -10q-9 -34 16 -69q24 -31 55 -40q42 -13 73 22q19 23 50 133q39 197 49 252q-10 -1 -19.5 -2t-19.5 -2q-11 -2 -23 -3.5t-26 -3.5
q-9 -1 -28.5 -2.5t-30.5 -3.5l-5 97q24 0 50.5 -1t54.5 -4q37 -5 59 -6q0 4 1 7q2 23 3 70q1 84 5 113q22 88 49.5 110.5t80.5 25.5q74 0 138 -72q49 -55 57 -123h-67q1 6 2 11q4 35 -26 65q-28 28 -60 32q-44 7 -69 -33q-18 -28 -24 -85q-1 -6 -9 -94q-1 -11 -3 -26l30 2
t31 3q11 1 21 1.5t21 1.5q22 2 49 2h40l-6 -82q-20 0 -37.5 0.5t-32.5 1.5q-68 6 -84 6h-20t-21 -1q-12 -73 -35 -191h1z" />
    <glyph glyph-name="four" unicode="4" 
d="M51 307q0 89 -12 183.5t-34 177.5l143 -6q-13 -75 -16 -112.5t-3 -70.5q0 -3 2 -34t2 -43l126 9q11 26 11 62q0 72 -15 140.5t-44 135.5l194 39q-19 -65 -28 -114t-9 -105q0 -34 2 -68.5t5 -67.5h96l8 -113l-107 -1q-8 -53 -8 -101q0 -26 5 -57t11 -56h-145q14 36 22 68
t8 63q0 15 -0.5 28t-4.5 51q-50 8 -95 8q-26 0 -57 -5t-57 -11z" />
    <glyph glyph-name="g" unicode="g" horiz-adv-x="502" 
d="M385 185q0 -23 5 -70q9 -85 9 -115q0 -99 -27.5 -132t-80.5 -33q-108 0 -189 63q-87 67 -87 169q0 29 6 65t14 65q21 -13 46 -18.5t54 -5.5q25 0 45 4q-2 -7 -62 -104q-22 -36 -22 -61q0 -35 39 -62q35 -24 72 -24q51 0 74 43q17 32 17 89q0 6 -2 95.5t-2 128.5
q-7 -20 -32 -29q-17 -6 -43 -6q-90 0 -139 57.5t-49 148.5q0 79 32 127q38 56 113 56q59 0 88 -10t65 -46l2 34l124 -25q-40 -167 -47 -201q-23 -115 -23 -203zM305 532q-24 13 -25 13q-24 10 -46 10q-27 0 -57 -22t-33 -48l-1 -24q0 -66 10 -90q17 -40 72 -40q15 0 31 4.5
t26 12.5z" />
    <glyph glyph-name="germandbls" unicode="&#xdf;" horiz-adv-x="441" 
d="M190 359q63 41 82 90q16 34 16 133q0 46 -35 68q-29 18 -58 20q-29 -13 -32 -53l-10 -753q-44 3 -116 18q0 91 4.5 245t3 231.5t0.5 209.5q8 63 45.5 114.5t95.5 55.5q102 2 161 -57q63 -54 63 -154q0 -84 -26 -136q-31 -61 -107 -79q75 -8 120 -80q20 -58 20 -119
q-18 -77 -86 -122q-56 -36 -126 -39l5 72q41 4 54 20q17 21 23 81l3 36q0 38 -32 69q-30 25 -69 36z" />
    <glyph glyph-name="grave" unicode="`" horiz-adv-x="224" 
d="M149 543q-52 85 -140 108l84 78q43 -90 122 -154z" />
    <glyph glyph-name="greater" unicode="&#x3e;" horiz-adv-x="499" 
d="M108 562q89 -45 178.5 -71.5t189.5 -45.5l3 -105q-115 -57 -225 -105q-119 -54 -227 -95l2 138q99 0 173 22.5t167 79.5q-61 25 -123.5 36t-131.5 11z" />
    <glyph glyph-name="guillemotleft" unicode="&#xab;" horiz-adv-x="508" 
d="M428 310q-53 0 -82.5 -11.5t-57.5 -37.5q43 -60 78 -83.5t81 -23.5l1 -146q-51 43 -106 99q-52 53 -106 112l1 110q47 21 89 49t105 75zM210 310q-54 0 -83 -11.5t-57 -37.5q43 -60 77.5 -83.5t80.5 -23.5l2 -146q-52 43 -107 99q-51 53 -106 112l1 110q48 21 89.5 49
t105.5 75z" />
    <glyph glyph-name="guillemotright" unicode="&#xbb;" horiz-adv-x="461" 
d="M35 453q63 -47 105 -75t89 -49l1 -110q-54 -59 -106 -112q-55 -56 -106 -99l1 146q46 0 81 23.5t78 83.5q-28 26 -57.5 37.5t-82.5 11.5zM253 453q64 -47 105.5 -75t89.5 -49l1 -110q-55 -59 -106 -112q-55 -56 -107 -99l2 146q46 0 80.5 23.5t77.5 83.5q-28 26 -57 37.5
t-83 11.5z" />
    <glyph glyph-name="guilsinglleft" unicode="&#x2039;" horiz-adv-x="345" 
d="M281 311q-73 0 -113 -11.5t-79 -37.5q60 -60 107 -83.5t110 -23.5l2 -145q-70 43 -145 99q-71 52 -145 111l2 110q64 20 121 48t144 75z" />
    <glyph glyph-name="guilsinglright" unicode="&#x203a;" horiz-adv-x="298" 
d="M41 453q87 -47 144 -75t121 -48l2 -110q-74 -59 -145 -111q-75 -56 -145 -99l2 145q63 0 110 23.5t107 83.5q-39 26 -79 37.5t-113 11.5z" />
    <glyph glyph-name="h" unicode="h" horiz-adv-x="534" 
d="M278 19l6 292h-136l4 -305l-152 -6q0 108 4 216t9 229.5t5 203.5l114 -6l-26 -161l195 -6l-2 186l178 1q-10 -80 -16 -179.5t-7.5 -180t-1.5 -206.5v-81z" />
    <glyph glyph-name="hyphen" unicode="-" horiz-adv-x="443" 
d="M174 425q51 0 115 13q45 9 112 29l-26 -116q-172 0 -324 -33l-38 124q49 -8 85.5 -12.5t75.5 -4.5z" />
    <glyph glyph-name="i" unicode="i" horiz-adv-x="163" 
d="M101 537l17 -337h-105q0 42 -3 127t-3 128q0 16 2.5 38.5t5.5 43.5h86zM110 614q0 -27 -11 -42t-36 -15q-20 0 -35.5 12.5t-15.5 32.5q0 22 18 42.5t40 20.5q19 0 29.5 -15.5t10.5 -35.5z" />
    <glyph glyph-name="iacute" unicode="&#xed;" horiz-adv-x="188" 
d="M115 537l17 -337h-105q0 42 -3 127t-3 128q0 16 2.5 38.5t5.5 43.5h86zM18 602q59 47 91 114l62 -58q-65 -17 -104 -80z" />
    <glyph glyph-name="icircumflex" unicode="&#xee;" horiz-adv-x="296" 
d="M185 537l17 -337h-105q0 42 -3 127t-3 128q0 16 2.5 38.5t5.5 43.5h86zM193 594q0 34 -7 52t-22 37q-38 -28 -51.5 -49.5t-13.5 -49.5l-89 -1q26 31 61 65q31 33 67 67l67 -1q13 -29 29 -55t46 -65h-87z" />
    <glyph glyph-name="idieresis" unicode="&#xef;" horiz-adv-x="240" 
d="M169 537l17 -337h-105q0 42 -3 127t-3 128q0 16 2.5 38.5t5.5 43.5h86zM90 611q0 -7 -5 -13.5t-12.5 -11t-16 -7.5t-15.5 -3q-16 0 -21 11t-5 28q0 16 12 31t29 15q14 0 24 -17.5t10 -32.5zM230 611q0 -7 -5 -13.5t-12.5 -11t-16 -7.5t-15.5 -3q-16 0 -21 11t-5 28
q0 16 12 31t29 15q14 0 24 -17.5t10 -32.5z" />
    <glyph glyph-name="igrave" unicode="&#xec;" horiz-adv-x="197" 
d="M160 537l17 -337h-105q0 42 -3 127t-3 128q0 16 2.5 38.5t5.5 43.5h86zM121 574q-39 63 -104 80l62 58q32 -67 91 -114z" />
    <glyph glyph-name="j" unicode="j" horiz-adv-x="293" 
d="M258 575l-20 -520q0 -137 -64 -183q-54 -39 -199 -39q-19 0 -64 2t-49 2l43 138q52 -19 78 -24.5t52 -5.5q38 0 61 22t23 60q0 80 -6.5 163.5t-18.5 174.5q-6 47 -25 169z" />
    <glyph glyph-name="k" unicode="k" horiz-adv-x="495" 
d="M188 0h-169q11 105 18.5 202.5t7.5 185.5q0 96 -7.5 179.5t-24.5 216.5h143l-1 -322q68 15 102 59.5t34 114.5q0 63 -18 120l198 -32q-39 -109 -85 -180q-60 -93 -140 -138q69 -79 105 -129q48 -67 76.5 -133t43.5 -156l-183 25q0 131 -14 192q-28 120 -113 120z" />
    <glyph glyph-name="l" unicode="l" horiz-adv-x="395" 
d="M13 672l102 -10l-7 -477h248l-16 -128l-321 32z" />
    <glyph glyph-name="less" unicode="&#x3c;" horiz-adv-x="479" 
d="M382 427q-69 0 -131.5 -11t-123.5 -36q93 -57 167 -79.5t173 -22.5l2 -138q-108 41 -227 95q-110 48 -225 105l3 105q100 19 189.5 45.5t178.5 71.5z" />
    <glyph glyph-name="logicalnot" unicode="&#xac;" horiz-adv-x="484" 
d="M460 369l25 -251l-100 -13v195l-374 -6l-9 80z" />
    <glyph glyph-name="m" unicode="m" horiz-adv-x="723" 
d="M23 715l243 -16l84 -290q29 0 60 129q27 113 27 165l213 -3q8 -25 11 -67.5t3 -98.5q0 -50 -3 -138t-3 -113q0 -160 10 -246t31 -157l-186 10q27 181 33.5 245t6.5 128q0 129 -17 263l-98 -334l-172 2l-138 401v-38q0 -62 6 -133t12.5 -148t6.5 -126q0 -73 -9 -147h-139
q8 100 12.5 233.5t5 246t0.5 232.5z" />
    <glyph glyph-name="macron" unicode="&#xaf;" horiz-adv-x="483" 
d="M155 919q166 2 225 13q40 7 102 20l-24 -93q-277 -6 -416 -32l-35 99q45 -6 78.5 -6.5t69.5 -0.5z" />
    <glyph glyph-name="mu" unicode="&#xb5;" horiz-adv-x="536" 
d="M174 157v-14q7 -45 21.5 -62t44.5 -17q64 0 90 81q15 49 15 129q0 59 -4 108t-11 105l129 23q-16 -81 -23 -144t-7 -138q0 -63 -12 -108q39 -31 87 -45l-44 -76q-19 49 -60 77q-8 -15 -18 -28q-40 -42 -116 -42q-61 0 -107 21q0 -10 0.5 -15t1 -9t1 -9.5t0.5 -32.5
q1 -11 2 -12.5t1.5 -2t0.5 -3.5v-15q1 -20 2.5 -41.5t2 -42t1 -38t0.5 -28.5l-97 13q0 20 1.5 51.5t3.5 60.5q1 31 1 43v15t-0.5 2.5t-0.5 23.5q0 74 -4 155t-11 153q-2 15 -3.5 31.5t-3.5 35.5q-3 24 -6.5 59t-6.5 64l127 9q0 -17 -1 -43t-3 -57z" />
    <glyph glyph-name="multiply" unicode="&#xd7;" horiz-adv-x="441" 
d="M249 378q40 39 83 97l89 -73q-40 -25 -72 -51.5t-66 -60.5l37 -40q24 -24 38 -36t47 -35l-84 -59q-46 59 -97 110q-30 -35 -40.5 -46.5t-23.5 -23.5l-54 -53l-73 63q48 39 89 81l41 40l-26 27q-20 21 -46.5 39t-57.5 36l80 89q18 -32 32 -51.5t33 -38.5l44 -41z" />
    <glyph glyph-name="n" unicode="n" horiz-adv-x="490" 
d="M119 -25l-99 -10q0 59 4 146q9 195 9 244q0 46 -4 113q-9 152 -9 189l82 8q53 -39 104 -97q36 -40 146 -190q15 102 15 205q0 63 -13 135q22 0 38.5 -3.5t43.5 -12.5q0 -52 -2 -113q-5 -152 -5 -190q0 -81 11 -182q7 -60 24 -182l-122 8q-57 107 -113 215
q-70 128 -132 204q0 -78 5 -161t11 -174t6 -152z" />
    <glyph glyph-name="nine" unicode="9" horiz-adv-x="536" 
d="M215 815q134 0 212 -101q72 -93 72 -229q0 -147 -77 -283q-91 -160 -228 -160q-41 0 -87 33q-38 27 -69 67l150 89q13 -36 25 -54q21 -31 48 -31q36 0 63 63.5t40 176.5q-20 -30 -55.5 -49.5t-72.5 -19.5q-103 0 -169 95q-59 84 -59 191q0 98 54 155t153 57zM217 405
q40 0 76 52.5t36 94.5q0 61 -23 122q-30 79 -80 79q-45 0 -69 -69q-18 -51 -18 -108q0 -72 9 -106q17 -65 69 -65z" />
    <glyph glyph-name="ntilde" unicode="&#xf1;" horiz-adv-x="505" 
d="M135 -25l-99 -10q0 59 4 146q9 195 9 244q0 46 -4 113q-9 152 -9 189l82 8q53 -39 104 -97q36 -40 146 -190q15 102 15 205q0 63 -13 135q22 0 38.5 -3.5t43.5 -12.5q0 -52 -2 -113q-5 -152 -5 -190q0 -81 11 -182q7 -60 24 -182l-122 8q-57 107 -113 215
q-70 128 -132 204q0 -78 5 -161t11 -174t6 -152zM34 743l6 49q5 31 26.5 43.5t56.5 12.5q61 0 106.5 -33t71.5 -33q18 0 24.5 7.5t6.5 23.5q0 10 -1 19.5t-2 19.5l70 -2q-3 -58 -27 -88.5t-77 -30.5q-37 0 -83.5 32.5t-71.5 32.5q-28 0 -27 -56z" />
    <glyph glyph-name="numbersign" unicode="#" horiz-adv-x="655" 
d="M60 526l24 107l145 -6q9 24 14 47t5 46l-3 62l109 9q-35 -77 -55 -164l94 3q16 38 24.5 75t12.5 83l125 -6q-29 -37 -47 -75t-26 -80h123l-77 -92h-94l-19 -104l113 8l-3 -93l-134 -5q-6 -28 -7.5 -40t-1.5 -34q0 -36 4.5 -67t14.5 -70l-129 26l34 190l-89 -5v-154
l-128 -17q24 43 36 84t17 90h-126l21 87h126l20 101zM240 425l98 6l21 117h-102z" />
    <glyph glyph-name="o" unicode="o" 
d="M272 216q-116 0 -194 72t-78 187q0 95 82 151q72 49 170 49q108 0 172 -70t64 -180q0 -96 -60.5 -152.5t-155.5 -56.5zM197 625q-43 0 -66.5 -34t-23.5 -79q0 -39 21.5 -98.5t48.5 -78.5l47 -26q6 -3 27 -15q18 -9 29 -9q33 0 68 29t35 61l-1 11q-8 90 -51 157
q-52 82 -134 82z" />
    <glyph glyph-name="oacute" unicode="&#xf3;" horiz-adv-x="518" 
d="M286 216q95 0 155.5 56.5t60.5 152.5q0 110 -64 180t-172 70q-98 0 -170 -49q-82 -56 -82 -151q0 -115 78 -187t194 -72zM211 625q82 0 134 -82q43 -67 51 -157l1 -11q0 -32 -35 -61t-68 -29q-11 0 -29 9q-21 12 -27 15l-47 26q-27 19 -48.5 78.5t-21.5 98.5
q0 45 23.5 79t66.5 34zM198 735q59 47 91 114l62 -58q-65 -17 -104 -80z" />
    <glyph glyph-name="ocircumflex" unicode="&#xf4;" horiz-adv-x="518" 
d="M284 215q95 0 155.5 56.5t60.5 152.5q0 110 -64 180t-172 70q-98 0 -170 -49q-82 -56 -82 -151q0 -115 78 -187t194 -72zM209 624q82 0 134 -82q43 -67 51 -157l1 -11q0 -32 -35 -61t-68 -29q-11 0 -29 9q-21 12 -27 15l-47 26q-27 19 -48.5 78.5t-21.5 98.5
q0 45 23.5 79t66.5 34zM285 708q0 34 -7 52t-22 37q-38 -28 -51.5 -49.5t-13.5 -49.5l-89 -1q26 31 61 65q31 33 67 67l67 -1q13 -29 29 -55t46 -65h-87z" />
    <glyph glyph-name="odieresis" unicode="&#xf6;" horiz-adv-x="525" 
d="M289 215q95 0 155.5 56.5t60.5 152.5q0 110 -64 180t-172 70q-98 0 -170 -49q-82 -56 -82 -151q0 -115 78 -187t194 -72zM214 624q82 0 134 -82q43 -67 51 -157l1 -11q0 -32 -35 -61t-68 -29q-11 0 -29 9q-21 12 -27 15l-47 26q-27 19 -48.5 78.5t-21.5 98.5
q0 45 23.5 79t66.5 34zM235 737q0 -7 -5 -13.5t-12.5 -11t-16 -7.5t-15.5 -3q-16 0 -21 11t-5 28q0 16 12 31t29 15q14 0 24 -17.5t10 -32.5zM375 737q0 -7 -5 -13.5t-12.5 -11t-16 -7.5t-15.5 -3q-16 0 -21 11t-5 28q0 16 12 31t29 15q14 0 24 -17.5t10 -32.5z" />
    <glyph glyph-name="oe" unicode="&#x153;" horiz-adv-x="737" 
d="M250 52q-102 0 -171.5 64t-69.5 165q0 85 72 135q65 43 152 43q96 0 152 -63q12 -11 21 -26q7 12 14 21q43 49 142 49q77 0 118 -65q35 -56 35 -136h-218l2 -71q4 -89 51 -89q26 0 48 14t22 38q0 15 -5 35l106 2q-22 -74 -53 -103q-38 -34 -113 -34q-81 0 -131 64
q-10 12 -18 27q-7 -11 -18 -21q-54 -49 -138 -49zM184 415q-38 0 -59 -30.5t-21 -70.5q0 -34 19 -86.5t43 -70.5l41 -22q6 -3 25 -14q15 -8 25 -8q30 0 61 26t31 54l-1 10q-7 79 -46 139q-46 73 -118 73zM452 296l134 4v10q0 39 -17 58.5t-55 19.5q-34 0 -48.5 -20
t-14.5 -58z" />
    <glyph glyph-name="ograve" unicode="&#xf2;" horiz-adv-x="525" 
d="M293 216q-116 0 -194 72t-78 187q0 95 82 151q72 49 170 49q108 0 172 -70t64 -180q0 -96 -60.5 -152.5t-155.5 -56.5zM218 625q-43 0 -66.5 -34t-23.5 -79q0 -39 21.5 -98.5t48.5 -78.5l47 -26q6 -3 27 -15q18 -9 29 -9q33 0 68 29t35 61l-1 11q-8 90 -51 157
q-52 82 -134 82zM251 713q-39 63 -104 80l62 58q32 -67 91 -114z" />
    <glyph glyph-name="one" unicode="1" horiz-adv-x="293" 
d="M105 348q0 60 -6.5 116t-20.5 140l-74 -2q58 92 78 204l94 -16q0 -177 13.5 -359t38.5 -373l-142 19q10 79 14.5 139.5t4.5 131.5z" />
    <glyph glyph-name="onehalf" unicode="&#xbd;" horiz-adv-x="820" 
d="M491 743l177 -5q-131 -193 -215 -355q-94 -182 -163 -384h-145q112 172 198 359q83 179 148 385zM647 13q-41 0 -77 -2.5t-85 -7.5q9 36 19 72q16 61 24 73q6 10 75 62q30 23 50 56q24 43 26 50q7 17 7 32q0 23 -14 47q-17 28 -37 28q-23 0 -31 -57q-2 -22 -2 -74l-89 20
q0 56 41.5 96t99.5 40q48 0 73 -49q19 -38 19 -90q0 -54 -26 -99q-30 -49 -79 -67l-12 -3q-23 0 -39 -13.5t-16 -37.5q0 -10 3 -21q50 0 89.5 6.5t80.5 22.5l13 -91q-55 6 -56 6q-26 1 -57 1zM146 467q0 35 -4 68.5t-12 82.5l-44 -1q35 55 46 121l55 -10q0 -104 8.5 -211.5
t23.5 -221.5l-84 11q6 47 8.5 83t2.5 78z" />
    <glyph glyph-name="onequarter" unicode="&#xbc;" horiz-adv-x="831" 
d="M502 743l177 -5q-131 -193 -215 -355q-94 -182 -163 -384h-145q112 172 198 359q83 179 148 385zM157 467q0 35 -4 68.5t-12 82.5l-44 -1q35 55 46 121l55 -10q0 -104 8.5 -211.5t23.5 -221.5l-84 11q6 47 8.5 83t2.5 78zM523 131q0 58 -8 119.5t-22 115.5l93 -4
q-9 -49 -10.5 -73.5t-1.5 -45.5q0 -2 1 -22t1 -28l82 6q7 17 7 40q0 47 -9.5 91.5t-28.5 87.5l126 26q-12 -42 -18 -74t-6 -68q0 -23 1 -45t3 -44h63l5 -73l-70 -1q-5 -34 -5 -66q0 -16 3.5 -36.5t7.5 -36.5h-95q10 23 15 44t5 41q0 10 -0.5 18.5t-2.5 32.5q-33 6 -62 6
q-17 0 -37 -3.5t-37 -7.5z" />
    <glyph glyph-name="ordfeminine" unicode="&#xaa;" horiz-adv-x="403" 
d="M189 550q-14 0 -21 -13.5t-7 -31.5q0 -20 9 -39v1q8 -17 16 -17q5 0 11 1.5t15 8.5q1 21 1 39.5t1 41.5q-12 9 -25 9zM187 619q9 0 18.5 -1t18.5 -4v20q0 20 -2.5 38t-7.5 33q-6 17 -14 27t-17 10q-5 0 -21 -18h1q-9 -10 -16.5 -19t-12.5 -20h-87q25 61 61 91
q20 15 38.5 23.5t37.5 8.5q41 0 75 -26t42 -69q3 -17 5.5 -37.5t4.5 -41.5q3 -44 3 -123v-63l-1 -59l-98 -10v5q-9 -5 -19 -6.5t-20 -1.5q-44 0 -74 42v-1q-13 17 -18.5 36t-5.5 42q0 55 24 87q14 17 35.5 27t49.5 10z" />
    <glyph glyph-name="ordmasculine" unicode="&#xba;" horiz-adv-x="389" 
d="M216 484q-84 0 -140.5 53.5t-56.5 137.5q0 70 58 112q53 36 124 36q78 0 124.5 -51.5t46.5 -133.5q0 -70 -44 -112t-112 -42zM162 786q-32 0 -48.5 -25t-16.5 -58q0 -29 15.5 -73t34.5 -59l34 -18q4 -2 19 -12q14 -6 22 -6q23 0 48.5 22t25.5 44l-1 9q-5 66 -35 116
q-39 60 -98 60z" />
    <glyph glyph-name="oslash" unicode="&#xf8;" horiz-adv-x="547" 
d="M532 639l-69 -61q43 -63 43 -153q0 -96 -60.5 -152.5t-155.5 -56.5q-101 0 -174 54l-62 -55l-36 37l59 55q-59 67 -59 168q0 95 82 151q72 49 170 49q91 0 151 -51l59 55zM215 625q-43 0 -66.5 -34t-23.5 -79q0 -39 21 -99q6 -17 13 -31l184 170q-51 73 -128 73zM195 335
l47 -26q6 -3 27 -15q18 -9 29 -9q33 0 68 29t35 61l-1 11q-6 61 -28 111l-180 -160q1 -1 3 -2z" />
    <glyph glyph-name="otilde" unicode="&#xf5;" horiz-adv-x="508" 
d="M283 216q95 0 155.5 56.5t60.5 152.5q0 110 -64 180t-172 70q-98 0 -170 -49q-82 -56 -82 -151q0 -115 78 -187t194 -72zM208 625q82 0 134 -82q43 -67 51 -157l1 -11q0 -32 -35 -61t-68 -29q-11 0 -29 9q-21 12 -27 15l-47 26q-27 19 -48.5 78.5t-21.5 98.5
q0 45 23.5 79t66.5 34zM81 778v8q0 31 23.5 43.5t58.5 12.5q61 0 106.5 -37.5t71.5 -37.5q18 0 24.5 7.5t6.5 23.5q0 10 -1 19.5t-2 19.5l67 3q0 -54 -24 -84.5t-77 -30.5q-37 0 -86 41t-76 41q-11 0 -14 -8.5t-3 -23.5z" />
    <glyph glyph-name="p" unicode="p" horiz-adv-x="401" 
d="M163 -146l-158 -13q13 82 19.5 146t6.5 135q0 63 -12 278q-6 107 -6 168q38 29 78 45q47 19 89 19q87 0 130 -81q34 -64 34 -159q0 -94 -67 -148q-55 -45 -157 -62zM125 272q55 9 83.5 38.5t28.5 84.5q0 45 -11 78q-17 49 -51 49q-26 0 -51 -11z" />
    <glyph glyph-name="paragraph" unicode="&#xb6;" horiz-adv-x="508" 
d="M332 620v-132q0 -98 9 -213t17.5 -263.5t8.5 -234.5l-132 8q4 108 5 116q8 188 8 255q0 25 -2 76q-1 50 -1 75q-5 -36 -34 -53q-22 -15 -51 -15q-72 0 -112 76q-36 72 -36 194q0 134 38 184q24 34 65.5 50t200.5 16q81 0 150 -8q-2 -71 -3 -132q-2 -69 -2 -131
q0 -98 8.5 -213t17.5 -263.5t9 -234.5l-86 5q8 81 -1 229.5t-17.5 263.5t-8.5 213q0 62 1 131v1h-52zM138 367q13 -8 29 -8q18 0 32.5 9.5t25.5 32.5v219q-14 9 -26 13t-23 4q-27 0 -51 -38t-24 -78t9.5 -93t27.5 -61z" />
    <glyph glyph-name="parenleft" unicode="(" horiz-adv-x="350" 
d="M250 55q-16 -18 -29.5 -37t-23.5 -39q-73 80 -124 174q-62 114 -62 199q0 90 62 208q50 96 124 181q4 -23 14 -44.5t24 -44.5q-99 -140 -103 -146q-65 -101 -65 -155q0 -47 33 -107q27 -49 73 -104q19 -23 77 -85z" />
    <glyph glyph-name="parenright" unicode=")" horiz-adv-x="315" 
d="M14 65q56 59 113 119q63 78 63 147q0 80 -86 235q-30 54 -75 125q14 22 24.5 46t14.5 48q68 -102 118 -217q61 -141 61 -235q0 -90 -55 -190q-48 -87 -124 -158q-19 39 -54 80z" />
    <glyph glyph-name="percent" unicode="%" horiz-adv-x="671" 
d="M275 528q0 -44 -29.5 -76.5t-72.5 -32.5q-44 0 -74.5 40t-30.5 86q0 45 29.5 78.5t74.5 33.5q46 0 76 -43q27 -38 27 -86zM170 619q-17 0 -26.5 -13.5t-9.5 -47.5q0 -26 14.5 -70.5t32.5 -44.5q19 0 29 42q7 28 7 58q0 22 -14 49t-33 27zM497 115q0 -46 -40 -77
q-36 -28 -84 -28q-43 0 -70.5 33.5t-27.5 76.5q0 48 39 75.5t88 27.5q40 0 67.5 -33.5t27.5 -74.5zM399 194q-33 0 -55 -30.5t-22 -64.5q0 -54 52 -54q36 0 53 23q14 19 14 57q0 26 -10 47.5t-32 21.5zM626 525q-184 -102 -288.5 -200t-224.5 -279l-109 73q155 104 283 239
q109 115 231 292z" />
    <glyph glyph-name="period" unicode="." horiz-adv-x="147" 
d="M101 38q0 -37 -39 -37q-29 0 -44.5 12.5t-15.5 41.5q0 21 7.5 36.5t26.5 15.5q65 0 65 -69z" />
    <glyph glyph-name="periodcentered" unicode="&#xb7;" horiz-adv-x="145" 
d="M74 215q-20 0 -29.5 13t-9.5 33q0 45 43 45q17 0 27.5 -16t10.5 -33q0 -42 -42 -42z" />
    <glyph glyph-name="perthousand" unicode="&#x2030;" horiz-adv-x="900" 
d="M417 223q-20 0 -29.5 -15.5t-9.5 -35.5q0 -9 3 -20.5t8 -27.5q8 -27 22 -37l-1 1q6 -4 12.5 -7.5t12.5 -7.5l5 -2.5t8 -4.5q8 -2 12 -2q14 0 29.5 12t15.5 26l-1 6q-5 44 -26 77q-24 38 -61 38zM145 622q-20 0 -29 -15.5t-9 -35.5q0 -9 2.5 -20.5t7.5 -27.5
q5 -15 10.5 -23.5t11.5 -13.5l-1 1q6 -4 13 -7.5t12 -7.5l5 -2.5t8 -4.5q6 -3 12 -3q14 0 29.5 12.5t15.5 26.5l-1 5q-5 45 -26 78q-23 38 -61 38zM715 218q-19 0 -28.5 -15t-9.5 -36q0 -9 3 -20.5t8 -27.5q5 -14 10.5 -23t10.5 -14l-1 1q6 -4 13 -7.5t13 -7.5q2 -1 5 -2
t8 -4q6 -3 11 -3q15 0 30 12t15 26l-1 6q-2 21 -8 40.5t-17 36.5q-24 38 -62 38zM183 411q-32 0 -59 10t-46.5 29t-31 44.5t-11.5 57.5q0 52 45 84q39 27 92 27q30 0 54 -10t41 -28t26 -43t9 -55q0 -54 -32.5 -85t-86.5 -31zM455 12q-32 0 -59 10t-46.5 29t-31 44.5
t-11.5 57.5q0 52 45 85q38 26 92 26q30 0 54 -10t41 -28t26 -43t9 -55q0 -54 -32.5 -85t-86.5 -31zM753 7q-32 0 -58.5 10.5t-46.5 29t-31 44.5t-11 58q0 52 45 84q38 26 92 26q30 0 54 -10t41 -28t26 -43t9 -55q0 -54 -33 -85t-87 -31zM413 743l175 -5q-130 -188 -213 -346
q-93 -177 -161 -374h-144q111 168 196 350q82 174 147 375z" />
    <glyph glyph-name="plus" unicode="+" horiz-adv-x="505" 
d="M185 445q0 56 -10 128l114 11q-10 -46 -14 -87.5t-4 -89.5l54 -2q34 0 52.5 1.5t58.5 8.5l-18 -101q-74 9 -147 9q4 -46 4.5 -61.5t0.5 -33.5l-1 -75l-96 -8q6 62 6 121v57l-37 1q-29 0 -60.5 -5.5t-66.5 -15.5l-6 119q35 -9 59 -13t51 -4l60 2v38z" />
    <glyph glyph-name="plusminus" unicode="&#xb1;" horiz-adv-x="483" 
d="M214 99q27 0 54.5 2t58.5 4l39 3q11 1 24 1.5t25.5 1t22.5 0.5h16l-7 -82q-20 0 -36.5 0.5t-30.5 1.5q-68 6 -82 6q-38 0 -78.5 -3t-78.5 -7q-11 -2 -22.5 -3t-25.5 -3q-9 -2 -28.5 -3.5t-29.5 -3.5l-5 97q48 0 102 -6q55 -6 82 -6zM202 433q0 56 -10 128l114 11
q-10 -46 -14 -87.5t-4 -89.5l54 -2q34 0 52.5 1.5t58.5 8.5l-18 -101q-74 9 -147 9q4 -46 4.5 -61.5t0.5 -33.5l-1 -75l-96 -8q6 62 6 121v57l-37 1q-29 0 -60.5 -5.5t-66.5 -15.5l-6 119q35 -9 59 -13t51 -4l60 2v38z" />
    <glyph glyph-name="q" unicode="q" horiz-adv-x="486" 
d="M412 351q0 -77 11 -169t22.5 -188t11.5 -165l-170 6q7 87 8 93q10 105 10 158q0 20 -2 61t-2 62q-5 -30 -42 -45q-29 -12 -65 -12q-94 0 -144 62q-46 57 -46 154q0 108 48 149.5t158 41.5q25 0 53 -19q11 -7 29 -22l-5 38l133 -3q-4 -40 -6 -96t-2 -106zM164 255
q18 -6 37 -6q24 0 42.5 7.5t32.5 25.5v176q-17 7 -32.5 10.5t-31.5 3.5q-32 0 -63 -31t-31 -63q0 -31 12.5 -73.5t33.5 -49.5z" />
    <glyph glyph-name="question" unicode="?" horiz-adv-x="632" 
d="M181 48q15 11 25 16q16 8 29 8q18 0 24.5 -11t6.5 -30q0 -21 -13 -37.5t-34 -16.5q-23 0 -30.5 21.5t-7.5 49.5zM179 170q10 38 16 74t6 74q0 29 -10 71q-22 92 -22 118h256q0 106 -21 168q-34 99 -121 99q-74 0 -100 -69q-16 -43 -16 -134l-112 10q0 98 60.5 166.5
t159.5 68.5q139 0 216 -116q67 -101 67 -248q0 -46 -13 -72q-18 -35 -59 -35q-32 0 -74 6q-10 1 -125 23q0 -21 -3 -63t-3 -64q0 -42 21 -78z" />
    <glyph glyph-name="questiondown" unicode="&#xbf;" horiz-adv-x="424" 
d="M275 388q-15 0 -20.5 13.5t-5.5 31.5q0 35 30 35q15 0 21 -13t6 -31q0 -14 -8 -25t-23 -11zM314 318q-8 -30 -13 -58.5t-5 -58.5q0 -23 8 -56q18 -73 18 -94h-203q0 -83 17 -132q27 -79 96 -79q58 0 79 55q12 34 12 106l89 -8q0 -78 -48 -132t-126 -54q-110 0 -171 92
q-53 80 -53 196q0 36 10 57q15 28 47 28q25 0 59 -5q7 -1 98 -18q0 16 2.5 49.5t2.5 50.5q0 33 -16 62z" />
    <glyph glyph-name="quotedbl" unicode="&#x22;" horiz-adv-x="304" 
d="M5 839h98l-23 -194l-51 -9zM167 839h97l-14 -194l-63 5z" />
    <glyph glyph-name="quotedblbase" unicode="&#x201e;" horiz-adv-x="282" 
d="M140 66q-22 -48 -41.5 -99.5t-30.5 -100.5l-69 15q25 53 25 109q0 36 -9 71zM293 66q-22 -48 -41.5 -99.5t-30.5 -100.5l-69 15q25 53 25 109q0 36 -9 71z" />
    <glyph glyph-name="quotedblleft" unicode="&#x201c;" horiz-adv-x="308" 
d="M5 842l50 -9l61 -188h-97zM157 828l68 5l52 -188h-96z" />
    <glyph glyph-name="quotedblright" unicode="&#x201d;" horiz-adv-x="324" 
d="M20 835h97l-61 -189l-51 -9zM182 835h96l-52 -189l-68 5z" />
    <glyph glyph-name="quoteleft" unicode="&#x2018;" horiz-adv-x="132" 
d="M4 842l51 -9l60 -188h-97z" />
    <glyph glyph-name="quoteright" unicode="&#x2019;" horiz-adv-x="157" 
d="M29 843h96l-51 -188l-69 4z" />
    <glyph glyph-name="quotesinglbase" unicode="&#x201a;" horiz-adv-x="282" 
d="M205 66q-22 -48 -41.5 -99.5t-30.5 -100.5l-69 15q25 53 25 109q0 36 -9 71z" />
    <glyph glyph-name="quotesingle" unicode="'" horiz-adv-x="153" 
d="M41 598q0 77 -4 127.5t-20 100.5l122 7q-19 -73 -27 -116q-12 -66 -12 -118z" />
    <glyph glyph-name="r" unicode="r" horiz-adv-x="375" 
d="M15 394q0 45 -10 188q-5 72 -5 113h100l3 -45l-2 9q0 17 19 26.5t59 9.5q92 0 117 -65q13 -33 13 -145l-87 -11q-7 75 -10 91q-14 76 -37 76q-32 0 -46 -25q-10 -17 -13.5 -120.5t-3.5 -178.5q0 -60 4.5 -130.5t19.5 -194.5l-136 -5q0 60 10 254q5 97 5 153z" />
    <glyph glyph-name="registered" unicode="&#xae;" horiz-adv-x="652" 
d="M497 200l-144 -9q3 17 4 43.5t1 29.5q0 54 -14 100q-20 66 -61 66q-11 0 -17 -1.5t-17 -8.5l31 -220h-137q9 50 15.5 105t6.5 98q0 54 -8 162t-8 162q45 4 102 4q138 0 188 -45q43 -38 43 -114q0 -39 -34 -71.5t-75 -38.5q44 -35 81 -120q33 -75 43 -142zM209 762
q-88 0 -121 -85q-22 -57 -22 -170q0 -19 0.5 -37t0.5 -34q0 -124 35 -196q47 -97 157 -97q176 0 234 38q75 49 75 211q0 191 -83 279q-86 91 -276 91zM349 79q-164 0 -248 81t-84 244q0 145 6 193q12 98 60 147q57 59 176 59q141 0 256 -106t115 -245q0 -136 -71 -247
q-81 -126 -210 -126zM253 677l-4 -183h12q54 0 73.5 18t19.5 74q0 43 -30 66q-24 19 -71 25z" />
    <glyph glyph-name="s" unicode="s" horiz-adv-x="445" 
d="M245 772q66 0 108 -65q17 -26 55 -125l-119 -4q6 20 6 39q0 26 -18 61q-21 40 -42 40q-49 0 -73 -43q-20 -35 -20 -87q0 -64 73 -113l136 -84q74 -58 74 -143q0 -93 -57.5 -156.5t-149.5 -63.5q-104 0 -158 81q-14 21 -54 104l123 26q0 -45 20 -84q25 -48 66 -48
q53 0 73 36q15 27 15 84q0 75 -66 118l-122 76q-67 60 -67 175q0 72 61.5 124t135.5 52z" />
    <glyph glyph-name="scaron" unicode="&#x161;" horiz-adv-x="440" 
d="M245 772q66 0 108 -65q17 -26 55 -125l-119 -4q6 20 6 39q0 26 -18 61q-21 40 -42 40q-49 0 -73 -43q-20 -35 -20 -87q0 -64 73 -113l136 -84q74 -58 74 -143q0 -93 -57.5 -156.5t-149.5 -63.5q-104 0 -158 81q-14 21 -54 104l123 26q0 -45 20 -84q25 -48 66 -48
q53 0 73 36q15 27 15 84q0 75 -66 118l-122 76q-67 60 -67 175q0 72 61.5 124t135.5 52zM345 936q-30 -39 -46 -65t-29 -55l-67 -1q-36 34 -67 67q-35 34 -61 65l89 -1q0 -28 13.5 -49.5t51.5 -49.5q15 19 22 37t7 52h87z" />
    <glyph glyph-name="section" unicode="&#xa7;" horiz-adv-x="569" 
d="M330 886q68 0 114 -63q17 -23 57 -117l-125 -5q7 19 7 38q0 25 -20 58q-22 36 -44 36q-51 0 -77 -40q-22 -32 -22 -82q0 -61 77 -107l145 -80q78 -55 78 -136q0 -89 -60 -150q-17 -14 -37 -27l15 -9q78 -54 78 -135q0 -89 -60.5 -149t-158.5 -60q-109 0 -166 77
q-14 20 -57 99l131 24q0 -43 20 -80q26 -45 71 -45q55 0 77 35q14 25 14 80q0 70 -69 110l-128 73q-72 57 -72 167q0 67 66 116q17 15 36 25l-27 13q-72 56 -72 167q0 66 65 116.5t144 50.5zM375 289q15 26 15 80q0 71 -69 112l-44 24q-23 -10 -38 -33q-21 -33 -21 -83
q0 -61 78 -107l39 -23q27 8 40 30z" />
    <glyph glyph-name="semicolon" unicode=";" horiz-adv-x="237" 
d="M146 437q0 -19 -26 -33.5t-46 -14.5t-27.5 15.5t-7.5 38.5q0 25 17.5 46.5t42.5 21.5q19 0 33 -26t14 -48zM186 145q-40 -43 -66 -95.5t-32 -108.5l-76 25l25 40q7 12 20 76t13 82v17q-3 12 -4 18z" />
    <glyph glyph-name="seven" unicode="7" horiz-adv-x="587" 
d="M8 697q72 -9 138 -14.5t126 -5.5q65 0 137 5.5t149 14.5q-107 -214 -140 -387q-28 -146 -28 -415l-205 32q27 191 51 273t71 167q64 113 128 227q-11 5 -25.5 8t-28.5 3q-54 0 -167.5 -32t-172.5 -60z" />
    <glyph glyph-name="six" unicode="6" horiz-adv-x="565" 
d="M305 707q-51 0 -96 -85q-24 -46 -48 -127q46 48 114 48q91 0 152 -90q54 -80 54 -175q0 -105 -44 -169q-51 -74 -152 -74q-119 0 -199.5 90t-80.5 210q0 182 95 318q106 152 278 152q40 0 75 -4t71 -14l-90 -161q-30 36 -56 55q-36 26 -73 26zM248 455q-41 0 -75 -60
q-30 -53 -30 -97q0 -69 23 -127q30 -76 90 -76q46 0 74 51q23 42 23 92q0 57 -27 129q-33 88 -78 88z" />
    <glyph glyph-name="slash" unicode="/" horiz-adv-x="609" 
d="M352 743l175 -5q-130 -188 -213 -346q-93 -177 -161 -374h-144q111 168 196 350q82 174 147 375z" />
    <glyph glyph-name="space" unicode=" " horiz-adv-x="295" 
 />
    <glyph glyph-name="space" unicode="&#xa0;" horiz-adv-x="295" 
 />
    <glyph glyph-name="sterling" unicode="&#xa3;" horiz-adv-x="575" 
d="M120 151q28 141 38 207q-10 -1 -19.5 -2t-19.5 -2q-11 -2 -14 -3.5t-17 -3.5q-9 -1 -28.5 -2.5t-30.5 -3.5l-3 121q24 0 50.5 -1t36.5 -4q37 -5 59 -4q0 2 1.5 15t4.5 60q7 45 28 120q45 84 127 84q81 7 153 -47q49 -55 54 -142h-97q1 6 -4 26.5t-20 49.5q-28 36 -60 40
q-44 7 -62 -33q-13 -28 -17 -49q-6 -60 -9 -99q-1 -11 -3 -26l30 2t31 3q11 1 21 1.5t21 1.5q22 2 49 2h40l-6 -118q-20 0 -37.5 0.5t-32.5 1.5q-68 6 -84 6h-20t-21 -1q-14 -76 -35 -136l-6 -55q30 1 61 -10q36 -13 80 -39q38 -12 60 -12q35 0 42 28q3 25 3 44v5l98 -19
q-3 -20 -6 -41q-7 -46 -35 -74q-29 -37 -88 -37q-53 0 -108 27q-47 22 -81 40q-52 18 -93 7q-52 -9 -51 -51l-84 -6q4 30 12 45q14 32 39 56q26 24 53 28z" />
    <glyph glyph-name="t" unicode="t" horiz-adv-x="407" 
d="M14 693h81l-4 122h102l-8 -122h140v-114l-148 7l9 -309q2 -38 5 -75q5 -32 16 -32q21 0 34 70q10 78 12 92l118 -37q-28 -108 -77 -160q-41 -43 -94 -43q-41 0 -70 17q-35 20 -35 59v424l-86 -3z" />
    <glyph glyph-name="thorn" unicode="&#xfe;" horiz-adv-x="422" 
d="M205 -156l-158 -13q13 82 19 146q2 15 3 29q0 46 4 108q0 64 -6 253q-5 145 -27 418l130 11q-8 -104 -12 -215q33 10 64 10q87 0 130 -81q34 -64 34 -159q0 -94 -67 -148q-55 -45 -155 -62q2 -21 4 -46zM167 231q55 9 83.5 38.5t28.5 84.5q0 45 -11 78q-17 49 -51 49
q-26 0 -51 -11z" />
    <glyph glyph-name="three" unicode="3" horiz-adv-x="404" 
d="M248 201q0 54 -47 82q-30 18 -97 30l-11 110q73 0 114 53q38 49 38 124q0 32 -24 57t-56 25q-40 0 -82 -8q-16 -3 -79 -20q8 51 12.5 74.5t14.5 55.5q58 10 109 10q104 0 164 -48q66 -53 66 -155q0 -88 -28 -140q-32 -60 -109 -93q7 2 13 3.5t10 1.5q49 0 79 -74
q24 -60 24 -118q0 -77 -73 -121q-63 -38 -145 -38q-65 0 -123 13l7 148q16 -23 62 -38t81 -15q30 0 55 25t25 56z" />
    <glyph glyph-name="threequarters" unicode="&#xbe;" horiz-adv-x="812" 
d="M473 743l177 -5q-131 -193 -215 -355q-94 -182 -163 -384h-145q112 172 198 359q83 179 148 385zM181 399q0 33 -27 48q-18 12 -58 18l-6 65q43 0 67 31q23 29 23 73q0 19 -14 33.5t-33 14.5q-24 0 -49 -5q-9 -1 -46 -11q5 30 7.5 43.5t8.5 32.5q34 6 64 6q61 0 96 -28
q39 -31 39 -91q0 -52 -17 -82q-19 -36 -63 -55q4 1 7.5 1.5t5.5 0.5q28 0 46 -42q15 -36 15 -70q0 -45 -43 -71q-38 -22 -86 -22q-37 0 -72 7l5 88q9 -14 36 -22.5t47 -8.5q18 0 32.5 14.5t14.5 31.5zM494 131q0 58 -8 119.5t-22 115.5l93 -4q-9 -49 -10.5 -73.5t-1.5 -45.5
q0 -2 1 -22t1 -28l82 6q7 17 7 40q0 47 -9.5 91.5t-28.5 87.5l126 26q-12 -42 -18 -74t-6 -68q0 -23 1 -45t3 -44h63l5 -73l-70 -1q-5 -34 -5 -66q0 -16 3.5 -36.5t7.5 -36.5h-95q10 23 15 44t5 41q0 10 -0.5 18.5t-2.5 32.5q-33 6 -62 6q-17 0 -37 -3.5t-37 -7.5z" />
    <glyph glyph-name="tilde" unicode="&#x2dc;" horiz-adv-x="470" 
d="M72 879v8q0 31 23.5 43.5t58.5 12.5q61 0 106.5 -37.5t71.5 -37.5q18 0 24.5 7.5t6.5 23.5q0 10 -1 19.5t-2 19.5l67 3q0 -54 -24 -84.5t-77 -30.5q-37 0 -86 41t-76 41q-11 0 -14 -8.5t-3 -23.5z" />
    <glyph glyph-name="trademark" unicode="&#x2122;" horiz-adv-x="632" 
d="M115 713l-86 1l-11 78l431 6l-8 -40l-253 -23l24 -330h-111zM270 715l132 -8l35 -89q15 0 31 60.5t16 86.5l115 -1q5 -14 7 -38t2 -52q0 -26 -2 -70t-2 -57q0 -48 2 -86t12 -46l-101 -17q30 69 30 146q0 67 -9 133l-53 -168l-93 1l-64 145q-4 -14 -5.5 -26.5t-1.5 -32.5
q0 -22 2 -40q7 -63 7 -68q0 -18 -1 -36.5t-4 -37.5h-75z" />
    <glyph glyph-name="two" unicode="2" horiz-adv-x="541" 
d="M285 23q-72 0 -135 -4.5t-150 -13.5q16 64 33 129q29 110 43 133q11 17 132 110q54 41 87 100q42 78 47 90q12 31 12 58q0 41 -25 84q-29 50 -65 50q-41 0 -54 -102q-5 -39 -5 -133l-157 37q0 100 73.5 171.5t176.5 71.5q84 0 128 -88q34 -68 34 -161q0 -97 -47 -178
q-51 -88 -138 -121l-20 -6q-43 0 -70.5 -23.5t-27.5 -67.5q0 -18 5 -38q88 0 157.5 12t141.5 42l24 -164q-97 9 -100 9q-46 3 -100 3z" />
    <glyph glyph-name="u" unicode="u" horiz-adv-x="519" 
d="M15 413q0 36 -3 81t-7 79l170 -41q-17 -91 -25 -163t-8 -149v-18q0 -49 9 -73q14 -38 52 -38q81 0 113 113q19 68 19 177q0 82 -5 157t-15 153l163 31q-19 -111 -28.5 -206.5t-9.5 -196.5q0 -176 -59 -247q-50 -60 -146 -60q-90 0 -157 43q-77 49 -77 134q0 37 7 112
t7 112z" />
    <glyph glyph-name="uacute" unicode="&#xfa;" horiz-adv-x="538" 
d="M39 413q0 -37 -7 -112t-7 -112q0 -85 77 -134q67 -43 157 -43q96 0 146 60q59 71 59 247q0 101 9.5 196.5t28.5 206.5l-163 -31q10 -78 15 -153t5 -157q0 -109 -19 -177q-32 -113 -113 -113q-38 0 -52 38q-9 24 -9 73v18q0 77 8 149t25 163l-170 41q4 -34 7 -79t3 -81z
M197 727q59 47 91 114l62 -58q-65 -17 -104 -80z" />
    <glyph glyph-name="ucircumflex" unicode="&#xfb;" horiz-adv-x="522" 
d="M37 413q0 -37 -7 -112t-7 -112q0 -85 77 -134q67 -43 157 -43q96 0 146 60q59 71 59 247q0 101 9.5 196.5t28.5 206.5l-163 -31q10 -78 15 -153t5 -157q0 -109 -19 -177q-32 -113 -113 -113q-38 0 -52 38q-9 24 -9 73v18q0 77 8 149t25 163l-170 41q4 -34 7 -79t3 -81z
M318 768q0 34 -7 52t-22 37q-38 -28 -51.5 -49.5t-13.5 -49.5l-89 -1q26 31 61 65q31 33 67 67l67 -1q13 -29 29 -55t46 -65h-87z" />
    <glyph glyph-name="udieresis" unicode="&#xfc;" horiz-adv-x="531" 
d="M44 413q0 36 -3 81t-7 79l170 -41q-17 -91 -25 -163t-8 -149v-18q0 -49 9 -73q14 -38 52 -38q81 0 113 113q19 68 19 177q0 82 -5 157t-15 153l163 31q-19 -111 -28.5 -206.5t-9.5 -196.5q0 -176 -59 -247q-50 -60 -146 -60q-90 0 -157 43q-77 49 -77 134q0 37 7 112
t7 112zM219 755q0 -7 -5 -13.5t-12.5 -11t-16 -7.5t-15.5 -3q-16 0 -21 11t-5 28q0 16 12 31t29 15q14 0 24 -17.5t10 -32.5zM359 755q0 -7 -5 -13.5t-12.5 -11t-16 -7.5t-15.5 -3q-16 0 -21 11t-5 28q0 16 12 31t29 15q14 0 24 -17.5t10 -32.5z" />
    <glyph glyph-name="ugrave" unicode="&#xf9;" horiz-adv-x="529" 
d="M39 413q0 36 -3 81t-7 79l170 -41q-17 -91 -25 -163t-8 -149v-18q0 -49 9 -73q14 -38 52 -38q81 0 113 113q19 68 19 177q0 82 -5 157t-15 153l163 31q-19 -111 -28.5 -206.5t-9.5 -196.5q0 -176 -59 -247q-50 -60 -146 -60q-90 0 -157 43q-77 49 -77 134q0 37 7 112
t7 112zM252 696q-39 63 -104 80l62 58q32 -67 91 -114z" />
    <glyph glyph-name="underscore" unicode="_" horiz-adv-x="711" 
d="M410 -139l61 3l40 2t42 2q43 2 88 2.5t70 0.5l-14 -83q-21 0 -54.5 0.5t-62.5 2.5q-68 4 -109.5 5t-58.5 1q-129 -6 -204 -12q-37 -3 -92 -7t-107 -9l-6 102q13 0 33.5 -0.5t45.5 -1t52.5 -2t55.5 -3.5q57 -4 220 -3z" />
    <glyph glyph-name="uni00AD" unicode="&#xad;" horiz-adv-x="422" 
d="M174 338q51 0 115 13q45 9 112 29l-26 -116q-172 0 -324 -33l-38 124q49 -8 85.5 -12.5t75.5 -4.5z" />
    <glyph glyph-name="uni00B2" unicode="&#xb2;" horiz-adv-x="332" 
d="M179 380q-40 0 -77 -2.5t-90 -8.5q5 17 10.5 38.5t10.5 39.5q8 26 13.5 46t10.5 28t24 22.5t51 39.5q31 23 49 54v-1q1 2 2 3.5t2 3.5q9 17 13.5 27t6.5 16q7 15 7 29q0 20 -13 44v-1q-14 26 -32 26t-26 -51q-1 -12 -1.5 -34t-0.5 -45l-97 21q0 62 41 103
q22 21 47.5 30.5t55.5 9.5q49 0 75 -51q9 -18 14.5 -42t5.5 -49q0 -54 -26 -100q-16 -26 -35.5 -42t-42.5 -25l-15 -4q-22 0 -36 -12t-14 -33q0 -4 0.5 -7.5t1.5 -8.5q48 0 86 7.5t81 22.5l15 -102q-8 1 -18.5 2t-16.5 2t-11 1t-8 1q-4 0 -7 1q-13 1 -27 1h-29z" />
    <glyph glyph-name="uni00B3" unicode="&#xb3;" horiz-adv-x="332" 
d="M205 462q0 30 -30 47q-12 8 -54 14l-6 73q45 0 67 29q22 28 22 69q0 17 -12.5 29.5t-29.5 12.5q-11 0 -22.5 -1.5t-24.5 -3.5q-5 -1 -17 -3t-35 -9q1 6 2 14t2 13q2 17 5 29t8 29q38 7 67 7q63 0 98 -28q40 -33 40 -94q0 -51 -17 -83q-8 -13 -19.5 -25t-25.5 -21
q25 -6 42 -43q14 -34 14 -71q0 -48 -44 -74q-19 -11 -42 -17t-46 -6q-18 0 -37 1.5t-39 6.5l6 106q6 -9 16.5 -17t23 -13t25 -8t21.5 -3q16 0 29 12.5t13 27.5z" />
    <glyph glyph-name="uni00B9" unicode="&#xb9;" horiz-adv-x="332" 
d="M152 547q0 34 -3.5 65.5t-11.5 78.5q-10 0 -24 -0.5t-24 -0.5q38 60 50 130l63 -11q0 -104 8.5 -212t24.5 -225l-95 13q7 50 9.5 86t2.5 76z" />
    <glyph glyph-name="v" unicode="v" horiz-adv-x="587" 
d="M173 579q0 -110 14.5 -209.5t48.5 -194.5q74 146 104 263.5t30 274.5l181 2q-54 -170 -124 -360q-63 -173 -138 -355l-139 4q-24 160 -60 301t-94 283z" />
    <glyph glyph-name="w" unicode="w" horiz-adv-x="764" 
d="M173 -5q-11 120 -39 239q-19 80 -63 224q-36 115 -71 230l176 7q0 -115 9 -211.5t33 -186.5l66 493l178 -4l49 -479q23 116 31 228t8 255l181 19q-77 -228 -114 -411q-44 -218 -44 -423l-176 19l-32 369l-28 -369z" />
    <glyph glyph-name="x" unicode="x" horiz-adv-x="605" 
d="M165 808q-13 -49 -13 -92q0 -83 43 -150q28 -44 104 -118q63 85 79 118q29 60 29 140h172q-19 -97 -65.5 -185t-116.5 -162q134 -131 163 -314l-178 25q4 20 4 45q0 55 -27 100q-16 28 -66 81q-67 -23 -94 -50q-36 -35 -36 -100q0 -51 28 -89h-159l-1 36q0 81 36.5 156.5
t99.5 129.5q-58 104 -98.5 213t-62.5 223z" />
    <glyph glyph-name="y" unicode="y" horiz-adv-x="407" 
d="M239 -73q38 0 52 51q9 32 9 82q0 68 -14 141q-20 -15 -34 -23q-21 -12 -39 -12q-50 0 -98 93q-38 74 -69 191q-22 84 -33 155l152 10v-51q0 -141 21.5 -223t62.5 -82q21 0 37 13l-29 260l119 -11q0 -63 -5.5 -209t-5.5 -190q0 -112 -13 -175q-25 -123 -96 -123
q-54 0 -133 52q-58 38 -115 93l120 27q28 -30 49 -46q32 -23 62 -23z" />
    <glyph glyph-name="yacute" unicode="&#xfd;" horiz-adv-x="440" 
d="M260 -73q38 0 52 51q9 32 9 82q0 68 -14 141q-20 -15 -34 -23q-21 -12 -39 -12q-50 0 -98 93q-38 74 -69 191q-22 84 -33 155l152 10v-51q0 -141 21.5 -223t62.5 -82q21 0 37 13l-29 260l119 -11q0 -63 -5.5 -209t-5.5 -190q0 -112 -13 -175q-25 -123 -96 -123
q-54 0 -133 52q-58 38 -115 93l120 27q28 -30 49 -46q32 -23 62 -23zM207 671q59 47 91 114l62 -58q-65 -17 -104 -80z" />
    <glyph glyph-name="ydieresis" unicode="&#xff;" horiz-adv-x="440" 
d="M259 -73q38 0 52 51q9 32 9 82q0 68 -14 141q-20 -15 -34 -23q-21 -12 -39 -12q-50 0 -98 93q-38 74 -69 191q-22 84 -33 155l152 10v-51q0 -141 21.5 -223t62.5 -82q21 0 37 13l-29 260l119 -11q0 -63 -5.5 -209t-5.5 -190q0 -112 -13 -175q-25 -123 -96 -123
q-54 0 -133 52q-58 38 -115 93l120 27q28 -30 49 -46q32 -23 62 -23zM210 677q0 -7 -5 -13.5t-12.5 -11t-16 -7.5t-15.5 -3q-16 0 -21 11t-5 28q0 16 12 31t29 15q14 0 24 -17.5t10 -32.5zM350 677q0 -7 -5 -13.5t-12.5 -11t-16 -7.5t-15.5 -3q-16 0 -21 11t-5 28
q0 16 12 31t29 15q14 0 24 -17.5t10 -32.5z" />
    <glyph glyph-name="yen" unicode="&#xa5;" horiz-adv-x="651" 
d="M219 660q0 -59 14.5 -112t50.5 -104q77 77 107.5 140t30.5 148l189 1q-56 -92 -129 -193q-65 -92 -165 -190q1 -15 1.5 -30t2.5 -30q5 0 10.5 0.5t10.5 1.5h13.5t15.5 1q14 1 32.5 1.5t27.5 0.5l-4 -60h-25.5t-22.5 1q-22 2 -35 3t-20 1l1 -2q2 -12 2.5 -26t2.5 -28
q3 1 6 1t6 1q6 0 13.5 0.5t15.5 1.5q14 1 32.5 1h27.5l-4 -60q-14 0 -25.5 0.5t-22.5 1.5q-31 1 -46 3q4 -44 6 -76.5t4 -57.5l-102 10q-1 23 -1 44.5t2 52.5v24q-8 -1 -15.5 -2t-14.5 -2q-8 -1 -16.5 -2t-17.5 -3q-7 -1 -20.5 -2t-21.5 -2l-3 71q17 0 34.5 -0.5t37.5 -2.5
q11 -2 20.5 -2.5t17.5 -1.5v54q-8 -1 -15.5 -1.5t-15.5 -1.5t-16.5 -2t-17.5 -3q-7 -1 -20.5 -2.5t-21.5 -2.5l-3 72q33 0 72 -3q11 -2 20.5 -2.5t17.5 -1.5q-1 15 -1.5 31t-2.5 32q-69 87 -106.5 162.5t-97.5 151.5z" />
    <glyph glyph-name="z" unicode="z" horiz-adv-x="535" 
d="M8 595l127 -2q49 0 114 3q152 7 190 7q-42 -73 -88 -175q-126 -278 -136 -296q30 -4 71.5 -6t78.5 -2h13q40 0 60.5 1.5t40.5 10.5l-8 -122q-72 6 -115.5 8.5t-97.5 2.5q-49 0 -100.5 -4.5t-157.5 -20.5q54 85 96 164q31 60 74 156q31 70 75 175l-230 -20z" />
    <glyph glyph-name="zcaron" unicode="&#x17e;" horiz-adv-x="513" 
d="M22 595l127 -2q49 0 114 3q152 7 190 7q-42 -73 -88 -175q-126 -278 -136 -296q30 -4 71.5 -6t78.5 -2h13q40 0 60.5 1.5t40.5 10.5l-8 -122q-72 6 -115.5 8.5t-97.5 2.5q-49 0 -100.5 -4.5t-157.5 -18.5q54 83 96 162q31 60 74 156q31 70 75 175l-230 -20zM369 770
q-30 -39 -46 -65t-29 -55l-67 -1q-36 34 -67 67q-35 34 -61 65l89 -1q0 -28 13.5 -49.5t51.5 -49.5q15 19 22 37t7 52h87z" />
    <glyph glyph-name="zero" unicode="0" horiz-adv-x="695" 
d="M320 786q142 0 233 -130q81 -116 81 -265q0 -158 -99 -259t-257 -101q-129 0 -207 122q-67 105 -67 241q0 149 82 264q91 128 234 128zM263 680q-42 0 -78 -29t-36 -70q0 -142 33 -249q40 -130 130 -211q26 -23 61 -23q62 0 92 35t30 97q0 66 -28 168q-32 117 -79 191
q-58 91 -125 91z" />
  </font>
</defs>
</svg>
